<mxfile host="app.diagrams.net" modified="2022-02-23T10:02:24.518Z" agent="5.0 (Windows NT 10.0; Win64; x64) AppleWebKit/537.36 (KHTML, like Gecko) Chrome/98.0.4758.102 Safari/537.36 Edg/98.0.1108.56" etag="QZU39hZok4zZvvsd8l26" version="16.6.2" type="github">
  <diagram id="mi0Np4cZ-C4GDpeHAHyp" name="Page-1">
    <mxGraphModel dx="1422" dy="794" grid="1" gridSize="10" guides="1" tooltips="1" connect="1" arrows="1" fold="1" page="1" pageScale="1" pageWidth="827" pageHeight="1169" math="0" shadow="0">
      <root>
        <mxCell id="0" />
        <mxCell id="1" parent="0" />
        <mxCell id="um907eCkDZn0zg9bFrnv-11" value="" style="shape=image;verticalLabelPosition=bottom;labelBackgroundColor=default;verticalAlign=top;aspect=fixed;imageAspect=0;image=data:image/png,iVBORw0KGgoAAAANSUhEUgAAAmYAAAFKCAYAAAC3qpNaAAAgAElEQVR4nOx9aXfbSJJtkOK+SdTqrcrlqpruD/P/f8v065qusl22tXPfRYrvg+emA6HIBECJNCnHPQeHJAgkEglk5I0lIzOj0WhJBoPBYDAYDIbvjuz3roDBYDAYDAaD4SuMmBkMBoPBYDBsCYyYGQwGg8FgMGwJjJgZDAaDwWAwbAmMmBkMBoPBYDBsCYyYGQwGg8FgMGwJjJgZDAaDwWAwbAmMmBkMBoPBYDBsCYyYGQwGg8FgMGwJjJgZDAaDwWAwbAmMmBkMBoPBYDBsCYyYGQwGg8FgMGwJjJgZDAaDwWAwbAmMmBkMBoPBYDBsCYyYGQwGg8FgMGwJjJgZDAaDwWAwbAmMmBkMBoPBYDBsCYyYGQwGg8FgMGwJjJgZDAaDwWAwbAmMmBkMBoPBYDBsCYyYGQwGg8FgMGwJjJgZDAaDwWAwbAmMmBkMBoPBYDBsCYyYGQwGg8FgMGwJjJgZDAaDwWAwbAmMmBkMBoPBYDBsCYyYGQwGg8FgMGwJjJgZDAaDwWAwbAmMmBkMBoPBYDBsCYyYGQwGg8FgMGwJjJgZDAaDwWAwbAmMmBkMBoPBYDBsCYyYGQwGg8FgMGwJjJgZDAaDwWAwbAmMmBkMBoPBYDBsCYyYGQwGg8FgMGwJjJgZDAaDwWAwbAmMmBkMBoPBYDBsCYyYGQwGg8FgMGwJjJgZDAaDwWAwbAmMmBkMBoPBYDBsCYyYGQwGg8FgMGwJjJgZDAaDwWAwbAmMmBkMBoPBYDBsCYyYGQwGg8FgMGwJjJgZDAaDwWAwbAly37sChtWxXC7V/ZlMJtU5OJ5/LpdLur+/d8fLMkPX2HUkuTdf23/Psg3bjeVyScvlMtLP+PsQeu7ae4Py7u/v6e7ujmazWWS7u7tz19jb26NyuUylUomKxSLlcjnK5XKUzWZdObg+7/O8jk/1Xkp5I6+7KaS5Xpz8g8xMW24SGS5lsO9dWPWaz1mW7yqMmO04NGHPf2vHauBCOJPJ0P39PRGR+5SDCa6RlAR+D7LB65ZW+MTdFxfEac5NWva6EHoHNGh18dXvKQakp8S66r4KuKKTyWQom82qA632fHCsJDL39/d0f39P8/mc+v0+9Xo96na71O12qdPp0HA4pL29Pcpms1Qqlejk5IROTk6o2WxSuVx2/6FekqBls1l3bf5eyvolbTspY7is4UrgUyLuefvIlJQdmrzTZCLkJS/TR6j4tfn1pSzn/8n3hst/Xl7o3eJlxslww/eBEbMdBdeW8TtOo9KEUTabdedgwOBa9GKxiHRefjzgEzgaefkeA3JI8Pj+ixNWaUlZWpK4CaIg4XtvktY9RFbjrp0Uadp9HXVfFbw/ycHVR8xk3dEvpeI0n89pMBjQ9fU1XV5e0vn5OZ2fn1Or1aJ8Pk+5XI5qtRq9e/eOlssl5fN52tvbo0qlQnt7exF5AJLE6yXrt6p1iN8vJ32rlJMUklBJOehTVELvjnx2nGBKMsVJriYnJZmT19DeB/ls0pJaXFMq2YbtgRGzHUdo4NG0Pi5YpcDlJA//7+3tqUJaCo44Qa1pl6HjH4M4ixavk4+ghM4NCfQ09fP9xz+fGtqgL5HG0pTmmo89Nq12n5YMPwU5S/LOyU27ttaXeR8GyVssFnR3d0fdbpcuLi7o/fv3dH5+Tp8/f6bb21vnsqzVapTJZBwpWy6XVCgUKJfLBfs6H8ST1DOuPaSsWIVYPAZau6ZVJuT9S4uZJht87eCzlsXVTyPIUnb4xgMQY981Dd8fRsx2FJLg8P38f76PSDefcwHBXZfZbJb29vYiZfDzuBDi3/n1uKbIXTJJhJdEUiuPPNZHhEL74+rhO2YVopcWjykrZFXVjkvzHx8sVnmWcZDWjyRIaj31DbxPCf7+S/ckr1+cEnR/f+9I2Xw+p9lsRt1ul758+UJ//fUXXVxc0MXFBbVaLWeZqtVqVCgUHDHLZrNULpepWCzS3t4e5XK5B8SPb9LiE1JqNEj5Akt8knO1sh4DTkp85frkpGbd0sqRxJv/J+WtzyLm66uSgMl6h54L3r0kCprh+8GI2Q4jNEj5OjmgESr+PZfLOTcIPxeuDu5KWSwW7nypXWMQAMGDgPfFYqQhPHEIDbZ8sFsFaSxm6xJ+q9TdRwg0PEW909YxzmLGP5Mg6bGbtJZxNx6/bkjR4teQxOzu7o46nQ6dn5/Tn3/+SVdXV3R9fU3tdtuVUa1WKZ/PUz6fp0KhQJVKhZrNJjUaDSoWi5TJZCiX+zYcwEV6d3fn9nElzafUhBQdzaIE0gdrXRI85lnFkR7UiZMwjajy/fjOy9ZCPjRChk9pwfJZU33WM61uvDxZtjzXsF0wYvbMIAUFF6A+zYtbtOS5XLPlbgd+LgKItdgZPghJi4EmSNJaLlax7MT9lwRphNlTE7PQtZOQAy3e5SmgDdi+d27V8tPWe5XrrdI2PqLiO1Z776UFhdcH+zgp4+RsOp3ScDikfr9Pw+GQxuMxTadT12a5XI5Go5GbINDr9WgwGNBoNHpgEUM/50H5qFuIFGmWPn6vkoxoVrk07Z0UISU1jTVKIzX8M0T6tGOJyLmVQ2X7lGvtHkP3sYpiY/g+MGL2jCC1H26V0oSRJGSyLAwCOFZzPXDSheuHyJkUMr4BSu7TLFwha2Gc8HkMYdiUgFuVgMVZndZpwYtrG5/Gz+vnOzZkjdEQuk/tPG7pSHMdnBt3jKZ0+IiZZi0hilqsQcpg2ZpOpzSZTGg+nz8ISchkMrRYLGgymVC/36fBYEDD4ZBGoxFlMpmINQx9eT6f02KxeDAZwNd2IQKE83wWeih2ce0W2qft18hiCJI48faD9V8rR3tmPusaL9dXB6n4xpEyrkzL71JpSKNEGL4PjJjtMCRhkULAZ6bWLFhyg7DnuZDk8UTxA33oGvJefPXng5N2LY0wJiUgSQZU7ZzHEpy013zM4KThKS1Z2mAWd6x2Xtz+UFlp/w8N4KFBN0kZoWcllQ3NosStR9rxmtUMecym0ynd3d05MgWlKJvN0nw+p/F47EgZiFk2m3UhC5x8oGzu0vPdN283qYjxNtAIGcqAEqhBe2/ingevH/+Ux/usSnCxLpfLB+0T1//xjKR10CcLpczDebiufB+0e9QImXZ/cSTb8P1hxGzHoVkbONnQCBofCOCG1AQFkT89Rmig4tecz+cP6olrc8GsCRMtHkVDErIWh1XI2WPKXYVUJC3rMYRtFUGtDQBJr7HKfSa936R14EhjlUtbd+mmlEoV37jyhGO5woTP2WxGw+GQzs/PqdfrOVJGFJ14s1gsaDweU6fToVKpRF++fKFqtUrz+ZwqlQpVKhUqFouReFAQC0kufPccsphp5CNUpq9NV323kyiC/FiQMEyMQHwenzwBQpvL5dxx+PQ9P1kXrd7casmP9c1e9SmKoXeZxwIbtg9GzHYYIS1MHqMJV+zXrGAoV87KDJEyfi3ubuHCnSfFhKskJLA1Ae4TTrI+Wh1DbZl0fxwBWeU6WrmPIWe+/7SyH0PkZJm+dAGhuiS9lkZuViG4vv+kopDk+KTXXC6XkXddKkCSJPis03Bfwkp2d3dHk8mEPn36RJ1O54G1jBMzuC0zmQyVSiXa29ujfr9PhULBrQYAMpLJZB7IDDkjUSM38t7jZIWPHIXadJX3VZOJPnLIrWWclBUKhcjM1lwuR8Vi0a2ogFUV8FksFqlQKESsltr9am0mSZyMz+P/SeWZn+97nzUFwbA9MGK2o5BChZvYuUDmMSs8ZowPEEQPCRd+a3EQPo0PZUoXCwYSGawMt4t2P75YFHlNrV5xBCGtYJf7pRXhMWXJ/b4BLnSu/C90Da38p7oH7mJbpa5xJEvOCE5bvu8Y/Jbup6cqG3XnbkEi3fXJB10fMZN9aTab0eXlJXU6nUh8GXd/gZhhuaZsNkuLxcKl1OCzp2U+M9TfR8yk0hUiaJq8WPWdTHJMEiWS/+ZyT5IyTrZ44t56vU71ep1qtVpkWy6XEevZ3t5epB216/qUa/4M5Mx3InqgQOO7Rv45jJRtJ4yY7ShCrkVN4GlBxVpZ8nyi6IALS1dogyYPVwu+a8fxQVwKeZ9mqw2qofvX8BjCpi0h85TXiav7quXKa6xabuhcbiGNQxpSRvTQ/Z2m/CT/yeeahtQlOYa3i2Z55teV/RTH88GZTwDodrvU7/ddf9Niw0DastksdbtdN1OTIxQf5iNmUs6E2s53v3Ft/pj/4q4r+xp3ZcKKyAka3Je5XI7K5TLVajWqVquOpNVqNWo0Gm7jFjXp7sTGryvvh7dtSCGMy43nI8uG7YMRsx2GZvJOQmY0Nwk/F98hBDDjazab0WQyofF47LbJZEKTycRZwLAhEJn/5vExceQrRNBQPx+SHPcYYsbrlaQuaa+ThJilLTttOdr+JPXRSOuq5fruL+09rjJoJ61LmmOxxcUb+QZQaf3gfUT2M83yx4/t9/u0XC6p3+9HjtXqFXf/GsGS58SVl/Zd88F3nkZ45G98520A4gRLIt+wBmmpVHIEDdvBwYHb6vU6NRoNqtfrVKlUqFwuU6VScUTPt/4lr5OP/Eq5zz0m/F0LPQvD9sGI2Q7Dp3VLcsMFDjfVy2nYWqDvYrGg6XTqiFiv13PbYDBwU+9Ho5HbQN5A2kDcoM3P5/MH1/bV20fecI6Gp9gfOlYKyBB8A1XoWkmJma/M0Hm+GME0dUxCipOQ1jTX3ARkGECoDqvUWeuHvj7A9/mInKw7oLlNOdCnJpMJZbNZZ9HmsyI33fbfC0kIKI6TWzabjcSewWpWq9Xo8PCQms0mHR4e0tHRkfs8ODig/f19Wi6Xbq3SfD4fuYbvPQjJQWzS+ubzjMS5OA3fF0bMdhxca5Lw7eexZtyKhfiT2WzmSBaSVYJogYhJMsatY3BhgohxQgZ3ChccmoAJEbEkAmXV/5Icl4Z4rPJ/UlKWpHwNqxCzNNdKSuLSlMOxav3jAFdh0sH6MdfTBs0QIQ+FHvgGXBkfKokFd4dqFjbpWtOIpbymRio1PJYUpLH6hN6jUB21MjhR5hZLyLW7uzsaj8c0Go2o2+3Szc1NxHrGCRusaPV6PTJhgLs4eTtLxdkXr+jLCae9N0bKthOZ0WhkT2ZHocWhED0kDlII8uBhkC5OskajEbVaLbq5uaHb29uI9QtkDWQMLks+W0xu2uzMUDxF6FMelwZPIYTSWqhWvf46CA3Ram6MNHVJW74kAt8TT2lBSPoMQiSQEyFfOdr5vvK1/IVEFJkhLcvGAC9nA/pW8dDIpVZ/EIhNPX8f2Q1ZlULgMhdtgNixXC7nrGiFQsHFndXrdTo+PqajoyM6Pj52VjQsjYXj+LmcoPG21UI9tPuKy7mWRgk0bA5mMdthQAhrWl/IbA3Nbjqd0mAwoG6365Zpwfblyxf69OkT/f33384VCXIGosbJWFw9JdJYJbYNu1z3dUMb7OKO174nOd6HVZ9HyGL1lAhZlVYh/nLQlmEKMnyBE6lQTCAnZrxdeDlyBngooSq/F1gm48hn6J6TImQxk20kv/usv/w+5DsjnyliysrlMp2entLJyQmdnp7S2dkZ9Xo9F/6B5e+Wy2hiWcSzSWVbWjxlu8tcaNo9GbYTRsx2GFJYSiHIOy13UyLr92AwoHa7Ta1Wi1qtliNl/X7f7Wu1WpGZlShDBhinGWC58MBvjlU0WO0am8D3EnKPsS5sos6rWjSTvDvrwDqtgmmQxr3kI8Hyt3TPSqsLztGyy2t9U54viaG00ss6auQ3qUtxleN9ilSSOsi20J6NtGjJYxGnu1wuqdVq0Xw+d67O6+trOj8/p7OzMzo7O6OTkxNqNpvOisZzp8nF3vkzI/KTRJ+3wQja9sKI2Y6CC0duspaaFYTCaDRysWHdbpfa7Ta12226vr6mq6srur6+pm636wL6uZVMuinh+pAES2qdqIN0sYY0N5/myssMtYksN63wSRtvsmmE6qf9l3RQeio8ttwk1qF11iFkXQkhjhxpZUtrEf+9SjtofUWSKE6kZFiBdl3pIuP7tWOTWgNDhCEOmmxJc06a68n+Ij9lygstKS8UY8jQ0WhEnU6Hbm5uqFqtUr1ep9evX1Or1aJut0tnZ2c0nU5pPp9TuVx26TaQsoNb0+Tzkbkqfc/U91wN2wEjZjsMTsx8mil3WbZarQgZu7q6osvLSzo/P3dLuoC8ZTLfliSRgl3LPs2FO9+XRgDLMjSil6RNpNaeBmmu85TlpUESsuprt6Q5wLYV6ybDce35mGNCpAXnJCFn0mLCj5VygPdZWRfs48mpZQ46Xx2S9DPfPUjZkRZpLeoaoUxKTGTbahZEvowVJ72QzdzVOB6P3bmwhJVKJWq3286tCetaJpOhWq3mJhaUSiV3PTk5gBNr7X2Q988nYBm2D0bMdhggT0RfOxw0MgTk9/t9arfbTju7vr6m6+trt49vvV6PJpMJ3d/fuzKJKBK7gOvw63NIYaCdx8/3LSXiW2Rdu6bEqhaPVY5No7Gvcj1fW4cGpiSDVhJy89QCO63FKXTMuto81C6rtLl2nBw009RPO0Yrk1u2EReqETair6QMMVC5XE5NIi2TQIcs3ZBJsOzIZYz4IunAKu0Q9y7I5+Cz3IWuwyctyaTYckKT3Hg7yQB8/h/kdafToVwuR7PZjHq9Hl1fX9Pp6Sm9ePGCzs7O6Pj4mKrVKlWrVapUKq5doTinbT/eDkbOtg9GzHYUWkfn1rHBYEA3Nzd0fn5OFxcXkQ2aGYJOsUGoaFYyXIdfX37nxyYRhHLjhEz7LoVx6Boy+DlNu8adk1RjT3rdpyBmScmB75ykdXrMsSFCk6ReSTT80P0mQRJiH3oPfdeSi1onIThxg6p2fZ5sdjweUyaTcaRCXgP1qlQq1Gw2qVQquXhSnD+ZTIiIIuSM10HWPZvNUqFQcC64SqXiCAUIGvJ2hcqS9yV/pyHKvN1915AyDIouYmtlsmzE22IfyK+0OOLaPICfWytB7trtNs1mM5di49OnT3R8fEy//vqrs6Bh9jvKANFN0kZ837qtzobHw4jZjoILFGh0d3d3zmXZarXo/PycPnz4QB8/fqTPnz/T58+f6cuXLzQcDt3xvJPyrNZccGjXxXeusWvCzVdnTrpkNm3flsRytlwuI+WGjl11vxw405CBpPvjBiofOYhrH9+qD+uoe5KBNEm9fe3uQxKipO33WbJCddfqo5XNB2dcQ7oXuXLCvyepI86/v793ihmy+kPxknXOZDKUy+UcMatWq450jEYjyuVyD64daiP0u3w+7zLhI6HqwcEBVSoVlyVfuy9pgV7l/dH2a8m0tXPRftg48UJKIaQXwn7ezrKNAJ5KQ7o4+bJa/X6fstmsiyk7ODig2Wzm1uyczWaRJb1glYxrC/6/kbLdgBGzNUJaPLgQ54IIG49FkPlrODgZWi6/ZvCGS/Lm5oYuLy/ddnFxQZeXl3Rzc0PdbjeidWlrtBFFtWMtSSU+saAvkiJixhC3xvHjJQmEEDo8PKTDw0Oq1+uR9eg0cibjN3jgrdbWaUhT3P9xBCHJAJ10X8hlrA0ocQQnVPe49khyTKi8pL+THJeWmGm/4/YTRYkTv66myBBR5J3USBXfHyI32ibrFTp3sVjQzc0N3dzc0NXVFRERjcdjGg6HEZkBUlYsFh2BOjo6cpau6XTq4lAxYxvyQ5s0wAklrHaZTMaRsGKxSM1mk46Pj+n4+Nj1b2md156PbA9+nC9eLE4B8fUXLl+gvIKg8aXnsB/ErNfrufyOPCn3eDx2ZUIR5vebyWQeKJDz+dyRvvPzc8rn8zQcDt3MTbg3sdA6l4FaKhR5DU1eGLYLRszWDG52RgfiQoh3Kp6QFR2OC1N5PDrfZDKh29tbl3sM+ceur6+p0+lQu912mfpBzLgw5fXis3rwHwcXfKVSKZIUEVO6b29vablc0mw2eyBQ+X1gEeCXL1/Su3fv6MWLF06jRkwKtzSgjtw1g4SOXLAm0RxDSPJ/HLl5DFEhirfarErOtP+egpjF1SVJmasSuDT7QsfyekslicdyYrDjFguezw+EzXedpM82dA8+i9V8Pnf9v1gs0ng8plarFVFqiL71m1Kp5IjZy5cv3eC/WCzo/fv39OHDB/r06RNdXFy4mYX8+jKFA9oOcqbRaBARUalUosPDQ/rpp5/o7du3VCwWnVuTkwiNZElZxS3yMmUPNj6hQVrwfe3Lj+WWLO7SRBtgGwwGLs0QUg/xFEStVsu5P2ez2YNnpxFH7q788uULjcdjurm5oZ9++sktVJ/NZl28WT6fj8hxIorIci7HfQTXsF0wYrZmhLRi7TeEDdestU7ENbp+v09XV1f0/v17+vPPP+nDhw/04cMHarVaznoFM7i0NEkXC4QcdzH6BCRfYgTWM5QzHo/d7E6pjRKRM+1Xq1V68eIF/eMf/6BffvmFarUaVavViBWOf0IbB+mDhY1fQ2t33v4hJCUgIeH+mO9J4/l8JCiOePksCD6kba9VNPJVCNRjy9GO4QMbTwnD+wGIQCaTcQHYiO/EwAvXk7xuUnKwCjgxq1arlMvlaD6f083NDZXLZdrb24usnwnyglmB1WqVDg8P6e3bt/T7778T0Vcyxftcp9NxLlEuRzhp5WRpNptFEqdWKhU6OjqiN2/eULVaddY5Scx4G2Hj8opnvQd5wjJEvE54ZjguDTHjdeKrmPD8jYvFgobDocv9KGe6492Aa5mHjkgiye8b14GlrtVq0eXlpZPjy+WSyuUyHRwcuHbk5IuPHXhOmtvcsL0wYrZG8M4CgcU1GC3eBJYkdFYuAIm+zeIZj8fOGvblyxf6448/6I8//qDPnz/Tzc0NtdvtSEeWA5rPpF4sFqlSqbh127CGG1yWfP/BwQE1m03a39939zaZTCImfp7/jFsPoakfHR25JUr4zKNisRghgpyYQXsFMUMwccgdEnpGafYnOS7O8hM6RovPi7McJSFjSeEjWnFlSWL8GMRdI0l7rnIdfq/cCqsN8plMxlm1eehBqJ6ceMfdg+yrHNKVRxR13eXzeSoWiy5WCX0YsgD98e7uzq1/22q1aH9/3235fJ7u7u6oUChQpVJx23Q6de0BC6GctcnrPxwO6erqytUN1rSTkxPX52F5xKxQ6Rbm7anNgOTPjlvJZNyX9m5yC7tPieZEB22NSVK4PjwGkGlnZ2f05s2biNcCMhkuT8gxaYXk14ICPplMqNvt0sXFhWv/+XxO3W6XTk5O6OTkhOr1euRdhTzHPc7n89h30LAdMGK2RnDBwjU7uPxkzBRICzoM34dYDJCfTqfj3Jbv37+nP/74g/7973/T9fW1m02lJYEl+tbxuVAjIteREbjL13ir1WruOzYszFuv16nf7zsBPxgM6Pb2lm5ubpzGzIU3iNn+/r4TziBnfAYXb0feXrBmYBCCOwnX4efEPZ9V/kuLNNfhg4h8br7zQsQpZLWJK08OiiHCgbLlrLQ4hIhcWotZ0mskeR48xhPWXfRj6bKUOaEkofBdO6lSwAdTvBO+5wjFjhMzKFYY5Im+kSnEMrXbbarVatRoNGh/f58qlQrd3d1RPp9XiVk2m3WkAnJNuwdYzUFEptMpDYdDevv2Lc1mswjxKxQKrl7z+TxiAZMkiYdcyDbnxEwLbdCIbuhZSDcgt9hBBlWrVarVanR8fEzT6dQtc9ftdr8m8L66oqv/S1eENYiHw6GzLPK6cHALbafTIaJv1lxY6969e/dgjU78JoquAAMlIqTkGL4/jJitGegE3HIE0382m41oiNjH472kdgzBdnt7S58+faJ///vf9L//+7/0n//8h/7zn/9Qt9slom9CROYN4h1S7gdZAuHCjKrmwQEdNJtuX/P/vjcaDWo0GlStVt1kg2w26wR7oVCgu7s7IoqSQOROQsDx0dGRc4mCmCH2RMbWcVcJrBa5XC5C2PjxITzGWvZU8Rk+4pSU3KQllz7rgSQMGsmIs8zxAfOpyJlEGmK26jPCQK0RMz7wy6BrvJ9JrYc+csXP5Z/Szcb3w33H47uIvoUMwAImLficmMGKXS6XqdFo0GQycZZpuD3z+XzEWsVdewBvJ5TR7Xadew5uvb29PapWq9RsNl3MqiT3Ul7Jd8z3nvJ43SSyQJIz+Z7JGDfIZpn6A88LISSj0YguLi5c2qJPnz65RLGYpQlLptZnsG82mzkPBEI5EDe8t7dH9XqdSqUSVSqViCuXu7DlpC4jZdsLI2ZrRGhglL+lZseFAGLJJpOJm3H16dMn+vPPP+k///kP/f3339TpdBzp46SLCxGULRM/Yjs9PaVXr17Rq1evqNFoPLCSNRoNl5cIU99LpRLt7e1FUnV0Oh0nNBBXwQUFliEBCazX6y5Wgs/I1IgpET3QYDFQphm0Q8clGdB95ycZjOOOx0AYB+mSSFrvJG0UsrTFtV3IWhlnrViFTCUlN0nO422pWVI0Sw1/L/k1NbcbV7j4p7ZxpY0Prpx08P9BfJBA+vr6mi4vL2kwGESsR9ICBQsP0VdrTKfToXK57FxtvV4vYuXhQfEamcD7K5NfQ6HkhObu7o5evXpFr1+/fkD+eQws2l4SGH4f8t0OvUtxllouT6SFEkSY9wd+zP39vYvPg+W/VCq5sI/Dw0M6Ojpyyiz3ciBnmbbBpYn2hUekVCpRLpej6XRKp6endHp66ix5mrVxFauzYbMwYrYhxFkvpCDgmhkXkNfX1/T582f666+/HDG7uLig8XiszuaEEOX1QJ4hECwkgnz79i399ttv9PvvvzvNGf9h40SOXwd5eG5vb6nT6VC/33d1IiJHBmH2565QWN3gdsE98DaSbcmDgTVB81hTvU9wx5UXcpckLT8tseHnxpERaf1KMnjJY0LWMFm+LEvWUdYjdA++MkO/NWLv+82vIQdiWGc0Sw0+oUwQUYQsyU0SLN9x2gb3ITLQ41yeZwbBVJAAACAASURBVAupHYbDIV1eXrq8hWhvmS8QmeexhuPnz58j8V6z2cxZf7gs4TMiOUCmYF1DPYfDIS2XS5eM9e7uzqWWwCxDTObhi3bDXQx5JgmR9AqEnjnfF0fO+HeN8Emiy4kySNly+TVQv9ls0mQyoWaz6cI2Pn78SOVymXK5HHW7Xep0Og9IO29j+e4ghhguS7wTcGHjfdSImWG7YcRsg5ADotz4cfiEYBwOh9Rqteji4oI+fvxI79+/p48fP9KnT5+o1Wo9IHXcHcr3w2IFaxXckY1Gg3777Tf65z//Sf/85z+dK1IG/vP6Q0jwZIvtdpv6/T4Nh0OaTCYRdxCENSYYwAoHUgZhLMvnA6NPqMhgYGi1aREn1KVVUzvXV4b2XRvUOOFMU4bvU9Y/bdmhcn315wQrbV01Ms7r7yvbV27S58GfqbQy8/3Sjc73c4sYT7GA7yBWPACfp2PgmzxP/scJXb/fp8Fg4MgP0VfrF/JryRmZ3BKFOvT7fa9Co4VbSOsVBz8GBGM8HtN8PqfRaOTkGk+qur+/76z0aFfUE2Vg4gV/LvJaPlnKLWHyPeH/cch+rikSXDnE/zy/WKVScW1VqVSo0WjQwcGBk3m5XI6urq4izwMbvydO9pEEeDabRcI+kBeyWq26d5R7UXi9DdsLI2ZrhNSseGeFJYxrsVz4A9xSBvfl//7v/9LHjx/p9vY2khsHAwY0NlwTWihmUx4eHtLp6SmdnZ1FYrxgBgdR4oGknOjJ9eMmk4mbEg5CBg0dghT3eX9/7zRJBP5CI8Zgg3bBwMRJGRd+ENqoG7cOhmIoVrESxZ0fIi1J/vOVH0dcfAQqzuokB5hQOaGyZfm+36H6JyWWachW2vL5oKzdN/ZzVyYnN9zViE9JrkDIODHzWcb4f9p36ebkSwYBIEMyXQ6/V05SJGGRsVmSvGjWUbQZ+iFXriAPiL7O1oS1DkpgJpNxyVNBxrhcRPtz5UUqGZJA4nMVJY2/Iz4Ls4zdClmMl8ulm82O+wKRwsos5+fnLg8aYs942XL1CLiu8T+U3Ww2S81mk+7v7106DekSNmwvjJitEVqnAgnhM2R8FgwiclOiLy4u6MOHD46YffnyhQaDgSNm6Gxc8wcpKxaLbtZQvV6nFy9e0E8//URv3ryhFy9eOGGIGC+5AdytyjdMuQc5Q8Av19AhNO/u7twUbswcQ/A+yiP6lhYEmcY1YsZznGEw0GZlJiUP/HsccfLFv61KpPixGHxDhCItgdIQKjfpJs/XLJdJrxdqPyLdKhq6Rhw5C5E7beOuR97POGGTSUmRWFRzYfLgeZkfS8aYSeuxrBsnXfweOCnk8gGQ1ke0M1d+cJ9cYeTnSNnF3blaPZfLJQ2HQ7c2JHK+gWAimB2zxCXx0ogh7oMH/IP8aJ6KJOBtJduN1wfPj8fR+t4lxIMhpvbw8JBevnxJzWbTBfDncjkaj8fU6/Ui18OMW26tBDGDu3p/f9/llVwul84LAQUb98DjJA3bByNmawaEANfwEAswn8+dqZmb4rkwHg6HLlfZ33//7bbr6+uIMNbIApJH1ut1ajabbumj169f09u3b+nnn3+mV69eOXK2XC7djB+QGhkrwxc9h9Afj8d0e3tLrVaLut1uJOhftgOECR+8cI/cdI/ZR3ylAp/FTLo6+KDJr53kexyh4e3sIwhxJMxHDtA+GEi18kMkLETOfPXRzuf7tME1RKY46ViFlIWeDyc2vmO0No5r97i68XgfjTTzPqsRM/R3eZwM6JeuUO05+MBnDfJ7kc+PyJ8OhR8vwV1hvG6axcxXP34/fOFvzFKUMzWJyCmWmmtZs/ry7TGWMg24X36P8p2UMa+yTkhlAhdns9mkk5MT59LMZDJuRYHBYOBkINKHQOZxjwSXtZ8/f6ajoyMXY4ZVVLLZrLtuKEbUsB0wYrZGSCGlCRMeJ8FdkQjkvbq6os+fP9Pff/9Nnz9/plarRePx2FmWtMEd5RYKBTo4OKCzszN6+fIlvXr1KrLsyunpqVtcGBorZnZxDZ+TseFwGEmQCAKF2aGXl5fU7XadJU8G6ONe+/0+ffr0iTKZDF1eXtLBwQGVy+WIJQHWBu6aldo+j2fiA5+PPPDvcYO39gy1gTLJIB+3D/ANztr5cQQtaX2SHBdXpmwfrd1895CkXmgbtL32f9z5oWcaqievn2a1k5t0M3KiKmPR5PP2tbXmHuPQLELyXPkf5A232EsrIE9K6isXZAFKJq+HtDJqbY8l5RaLhZuQVCwW6cWLFw/6Ps8BifNBirhLUd5jqN34OaF4Mt937g3R4t34e8AnZ4GkEREdHh66GZlE5BaXv7m5oevra+r1eg/IM5cR2ezX1EudToc+fPjg6gM3MaxmiEfTLKWG7YERsw3A1wF4x+YzZu7v790ad5eXl85a9vnzZ7q9vY3MjpJCE/uIiIrFIh0cHNCrV6/o3bt3bjs6OqL9/X1qNBqRpZQgQLCyAMghtDckkcUSJNwygGS3V1dXbmYYF9rSrdDv9+nz5880Go1cCo58Ph9x7XAXDBfO/H41bV2zbMjnkJbQyPNkm4fKDu0LvR+y7Lj6JiU6IeIUd13fMUR6zrNQOWlIWdrvoX1p/wtZQLS29JUnB1RtgNXK0ixcvmvIOvHnIS2wID28f/H68Bmo2vvCXXd8VRCUzUMfeIybdEdi2aFer+fS8CAhLhLcIkZW5g1LYtHV2klrX/5ba2ffuyYnOEGWclIGucZjvUBkc7kcHR0dOeLJE33/+eefLoZXunTxCTK4WCyo3W6742CRw1rG1WrVeRe0+zZsD4yYrREQaD5TvzaIQZj1+326vr6mL1++0Pn5OZ2fn9PV1ZVbxNanCfIcZcfHx/T69Wt69+4d/fbbb/Tu3Tv69ddfI4QM10TnB/lC1upOp+MW6eVbv9+PCJ3r/8tq3el0IrFe/D658EdupV6v5+qbzWYjQc7SRcDdqyHBy91JqxCzuIHfd+0k5Ez7lEgSH5eETGr3kpQMavcUB07EtXgcX1vK64RIY9yA+ZRA3/WRTb5Jt6B85/k5cRZdfp/cbS/rEaoPypOhErg2LxexqFw58xFTXgfMssZi6EivAxK4XC4jCh6Wa+MTFIjIKYKLxYLOz89dWh6sEIL0OrgX2Y7S/SrdphrRWvWd0Z4Xn2SA/3zWUF+b1mo197yy2axrz/v7+0hOSC7X+LPE8+XJe4+Ojujk5IRqtRoVi0Wq1WoP1j42bCeMmK0ZPMYBJAPapiQb0C5HoxHd3NzQ33//Te/fv6cvX764pY4wU4dboLigKpfLdHx8TCcnJ/TLL7+49BevX792My6RcRrxZBCa3W7XJadEItvr62tnMRsMBjQej93xXPPu9XrOkicHHmjq0BjRDnCDakvecKELwSPj3nzwCew4YhAaKEOCPETSVimPKJ6AJCU2IWL31ED78ZQGcfWI+0/CFw4QqlNS+BQo2Wa8z8XdBydBmjKgXV8O2jx+jBM+fh4/npfLE0lr1wH5gZVKhh4QfYvlBDHiG/YVCgWXh5DXrd/vu3UiW62W2+TMUtR5MBjQxcUFLZdLp2QWi0U6Oztz5EJrYy5TIUdQrrS2a0hKUriyzUkRJ74yXhDtjPQqfHYkJ8KYFHBycuKWxUMMWTabdW2HMYC/HyB0aNdOp0OXl5f08eNH9/xBbnk8G9rQsF0wYrZGSDcCNi78ONkAURkOh46Y/fXXX3R+fk63t7fU7/dd2ejcPO6A6Kv5+uXLl/Trr7/SP/7xD0fMjo6OXDLZ5fLbbK3BYEDdbpd6vZ5b3/Lm5sZZ6c7Pz11M2Wg0ilijuDUAmrBmpeI5lADMwNKCZaXLhbsJUJ7U6n1tz8vxfY+zNGll49N33GOJXRLEnbeOa8YhFNOT5prasegrSTV+ToqSQBKzuDhCrb4hV7tWjrwXaaHjckKTG/w4GezOLS8gTNLyxtd5xHHFYjFiWQHx4hssWigT8VKFQiGy//b2li4vL+ni4oL+/vtvIvpKvri1nbcJ/hsMBo7swZV5cHDwoH1lW3PrIJcTofQ5nGTxY+T7oPV3biWWlnq8P5wM8XpA5iNeGG3KlWsQs/v7r4umY31MTjp5qAiuD2IGslyv1x3hy2azzkIaJ+sM3wdGzNYILjS5a05qTsvlt+U2BoOBW07ly5cv9PnzZ7q5uaF+v0/T6TSSMJBfBwIR7svff/+dfv/9d/rll1/ozZs3VK/XXX14ZvDb29uvi+yyBXaxlMvFxYVbVQDLhaC+RNHAfmmujyM7cgDXzpVuEww6oWBiOajx8rXvvv+SkL4QMfOVnxSP1ezjsE43xmMFveZ6wn7fAJuUDIbuW1MQpGXMp0Ro1+LH83dYI2EaAeOz8PinJGiZTCZizeJlQhnD0mm8DjgPSV35sdzCJmPIQM54WghuEeLy7fb21i27ls1+zVuGUAikzODtAeVuNBq5tXrr9TrVajW3lBFvN/5MZdvw5+J7NvjfR8j4Pkm+5TPUrqeRZvzPrWt4FvxZVqtVevPmDQ2HQxen1+12aTAYRAgdl0WYNAXZjhi9o6MjevnypZvoBeuoYTthxGxDQEeUcQEgGdPp1C1pdH5+TpeXl3R1dUWtVsvlqOECnpvri8WiS4fx888/07t37+jnn3+ms7MzajQaTshCIIzHY+p0OtRqtejz58/08eNHl7C20+lQu912sWSYAcrTUGiCjwvHOFKR1Aoh248f47s+F5LSSpfUuqVdw3fOqiRkVWIkz4v7re1PW+fHWrq0OqxyH0nuLckxvt98UOeDJz65dYSIIkssaYoILEncJScJEncHasRGfuefnLhJqwy3YsFqwq+LevpIFycRfEYfroHcY7xtONnjx2QyGZfyAoTi6uqKbm5u1LQ6IBiDwYCurq4erBKCWDbkOJPkSJIijTz54LN08vdEEjSuJKKtZFnyOC7POJkm+haKsVgsqFar0evXr10cMFZxwOx4KMuwquF9xEoOIOenJyd0enrq6gbLmWE7YcRsA+AdERYzom8dFloOMvyfn5/TxcUFXV9fu/QYPKM9J2Yo7/DwkN6+fUu//vprhJghrgD1QAfvdDp0cXFB79+/p3//+9/0//7f/3OLjyOAVAbia8RMkiUurJMSNPk9yfEa0UDdpOBL8nxkuaHB3mcFjKt/0t9Sg9eOk/UMlamVtYqlL805oTYNtXHoGM2qimN896sRdnkMfmvEhStUROSICRG5GE2Z14y7sEDIQC7q9bpL9slX5dBchRoZ4t95rBc/npM76XqEVUYSA0kSM5lMRInkBFFar2VcFb9vfDYaDVoul87yA+tZt9uNKFDcs4AJULlcLrKEHFyaPHWGlEmQBdqzTgpfP0SZUq5zqyYHd9ty5dxn4eNtCmJWKpWcGxOzWHEdpBXixA/EbDqdUqFQoNPTUzphq7o0m01HnA3bByNmawQ6dshFB0GOdeNAzG5ubqjb7TozNg+olkSkVCrR0dGRI2Zv3ryhs7MzlxuM6KtGhYEEC6G/f/+e/vzzT/rrr7/ow4cPriNPJhNXPq6He+FBvz4h45sWr5XJETdgy/3cqsEtHppWKsuVCJEEuT8p4UtCFpLUDf+HyEsa0sORtH3SIPRc4+rse9687Lj3JlSer33w/kh3I1F0sgnef8ycxoQYHluEdxOxPMVikfb3992SZ0j6yZdK4ySGEzKQOE648F0SM07aNPKmJbOW7SnDE3jwuiQdnLTyFDWccMJyV6lUIstDwV2JnIdQBHm5o9HIpX84PDx02fHhJahWqxGXLifFaH+fUsW/h977EDnj7yNPKyLfXanI8TZH28rr4X9MzMjn8/T69Wtqt9s0mUwol8u5mGS8d9yrslx+W9Ku0+m4fJiwPE6nUxd36Otrhu8HI2ZrBg9kRyeUpAwBnrCYXVxcULfbjcx8xPEyw3ShUKB6vU5nZ2cumz8nZdls1mXnRwqMDx8+0B9//EF//PEHff78mS4uLiIzPrFEkhQg0JwxCHACxgcGGTvBBz5+71IwcnKFNtPIlTxG28//4+cm/QwRBN8+3/ek1+X3oRFRjVzEEQ/fvYWIW1qSF2oL37Xj7iGujbU6hNrCd23tk1uPOEGR1hzEYXY6HRduIN1VICb7+/v0888/0++//x6ZHadZynhgvXR7yn1azBm3mEkrI77zfsItgjgOkLFsXGbxtpeTEYjIWYjgXgU5hZKIHIkIm5hMJpH2m81mNBgMiIjo8vKSGo0Glctlt2TTwcGBu99MJjqjm7eVrw0kOAmT332QVjMOnI+2lTKKP1NZP+neLBaLdHx8TG/fvnXtirRGuH9evnwOnU7HEbPj42Maj8dunWJYgA3bA3sia4SmjeKTd3ppMYOw55mgAQhRzJTiM25+/vln+vnnn6nZbNL+/j7lcrnI7EuU/Z///If+9a9/0f/8z/+42Z4QgBB03DXBBzTupuAuTsSyFAoF9Vw5iGikjw86RBQpR2qYUnv3uQWAJIN0aOPl8IFKlu37jCMk/D5kEPeq9dbq4munVdskjvjFtUXadpck4LHPlp/Prb88wB3vIBSc8XhM19fXLs8U4qaQm0/2+Xw+T/v7+/TTTz/Rf//3f1Oz2YwoOPxa3JUYagP+DmYy0ck3IGVQymReQf4eEH1L46PNhpZ9lyuSRBTpi+ib3J2GfWgD5NjCRKdut0tE5KyOkIdE5Nxzs9nMxZpB3p2dnUVme6MNkOMRlkZeH5+VkN8zvmcyD3NQ8uPk8bz9NU8BvsuYt5CVnx8Hrwjut9/v08XFBRUKBZpMJpH+LSeHwWoGQvvTTz+52GHffRq+L4yYbRByQF8ul07Y9/v9SP6wfr8fWTsSx3PhW6lUaH9/n87Oztx6l8fHx256OYQa0m98/vzZLYT+8eNH+vLli7sOcuWgnhC2XLPH1Hosm8LrxgOItUkOXAiFBlxJzKQFIpPJqIOXVr5v4JbXTbqf/88HNu1+tHNC9QHQ5trM27T1leejfElq05Im7Z5k22jXXqX9Q2U/xfPl4AoAT/2AwRbrumK1Crjaer0eDYdD1fLBFalyuezWRoQiI4P98XxQhvzUBnzUnV+Lx4n54j197agdg+vLMAXN8s2PRT2QL63RaBARUa/Xc2tBZjIZmkwm1G63nTuTWyd5Xi5Yjl68eEEnJyduchOfRSot7KF7lx4JiaSWM3nvktzF9SdZlibParUa3d9/zT+JZfU6nQ7d339dKQbL4EksFgsajUaUzWbdmsbtdtutuMJjnvl9SoIYt9/XFob0MGK2ZkiXAcdyuXSB+CBkmBnJl13ixwOFQsEtSP7LL7/QixcvqNlsOvP0YrGIuC/Pz89doP/ff/9Nt7e3EdcBOhOEOHIIwVWK2ISDgwM3jZ0PJNyVCYQGU6k58o27KeWMNymwNMLkE3qhAT3JJ3+m2j3J68SVpQll6Tp6bN2183kbJyk/zTW0uq/jHp66bKKohZtnw+cWoHw+T+VymWazmUsDgRmCMn5LW94MGdx5Cgt+7TjLjlZfjbhxq43PUo+41ZDFBGXLY2VclPbJr8dTQpRKJTo+Pqb5fO7CLSaTCbVaLbcmr0xSPB6Pqd1uUz6fp5OTEzo5OaGDgwNnHcOi3Vxh48lbfXXkxML3bsSR2pCyEFceb1f8p1ksicjdJyyG7969c5bLfr9Po9Eo8lxRBiy60+mUBoMB3d7e0pcvX6hQKNByuaRyuRxxh8qcm6iDJOV842Q0SfsZwjBitkbIF1cKweVy6cgTSFmr1XLLGnFiJoV0Pp93MzHfvXtHL1++dMQMWuZ4PKZer0c3Nzf05csX+uuvv+hf//oXXV9fu0B/HzFD0CncpHw7PT2lk5OTSGyMdFVy94aMTyH6NhMs5JbydegQWcD3JEGtvv9C5xDpy+PEIe1xaev2VOU/5jpxpO+x19LcSKuW5QMnFZJgLhYLKpfLbmbh/v6+y/8F1xkGMAxwWMmDJ2lG7q5SqUSZTEa1DHPrlHzPeF/SQgZ8BImXwYmbZvHi7aG1t4zl9BEKXtdMJuOI7fHxMZVKJTo5OXGk7NOnT5TNZiNyD3Uaj8eOdEAONZtNl3gWdUKMK64Ldyq/T4mk74bv3DQyRrpANUiLH9oxn89HiBkmUQwGAzo/P3fncvcuzsdM2MFgQK1Wyy19VSqV6PDwMHItjSTy/SBs2v1pZM2QHkbMNgT+AqPzLBYLmkwmzo0J8/54PH4QsyCtRZVKhQ4PD+nly5f04sULOjg4cLNsIOixzNLl5aVLwXF5eeni16SrlMe4HB0d0fHxMR0fH9Pp6SmdnZ05QnZyckLHx8eRvEf8PrkljQ/UPMhYxkKErCBx+0PCYR1IQvp+VPisZU+FdQp7OSDKZ8zziFUqFbfx5YxkP0c81mw2o8lk4lxOGNxA5Pj1fRYzTjD4wKdZvLR7Cd1vmraRddHIhtZ+sJgBhUKBarVaRLaAmPGJT0Tk9mWzWWq32y4J9v7+vvMuLJfxMzGfGqu+60nqJAklPBPlcpn29/edBezTp0/UaDSo3W67sBT+XBAHibAWJDA/ODigw8NDlwNNymKtr2nvpPZuhBRrQzyMmG0I/CWFIEZ8GWYm8anknJBh40HJjUbDxascHR25xYP5zKTpdErtdtuRsna7TaPRyLkKpJuwXC47t+WrV6/ozZs39Pr1azo6OnJZt+HKPDg4iAxUsp6aS47fjxTc67IQPTWMjIWxbmH8vbVwWA4w+QbJW2Etk0B9MTBiBQ3MrNNIhOz7kuxxy7vcvgf4IKzVA/sQr0cUfU/q9TodHR3Rq1eviIgc4dDWzUW8VKvVoqurKzo5OaHBYOBIm4zNBHaRJHDrF4D3rlKpUK1Wo/39fZdcvNvtOussXJxE34hZJpNxXpTb21s6Pj52bVcqlYiI1HeYQz5fqUQYIXsaGDHbAKQmDMsRBPVgMKB+v++0aRAzzUWATtloNOjw8JBOT0/p8PCQKpUKEUVnMk6nU+p0OvTlyxdHzJAtWuv0cAucnp7Su3fv6Ndff6XffvvNJXZsNBpu+ZZqtRrppKH4A66B+QKRcX9PsV+zNhg2h3W2+yaea8h6C2UDMWiY8MIXhZbvOwgFJ2awUsiBUJIy7Av1gbjBdB3g5FAbkGV74TcnsPivVqvR8fExvXr1yq2A0mq1XBuhTeANGA6H1G636fLykl6+fOnCMnjCWY5dlgOwugIgZlCiDw4OHDHrdDqUyWQeJJtFGcvlMkLM2u22a7v5fP4gtQhRekU09K4aksOI2ZqhvajcooVszsi6DzeHFMxEX4UazNiHh4duOzg4cPEqSDo4nU5dfBlWEej1eg/K5/Fg+/v79OLFC/rll1/o3bt39O7dO/rll19cHA3cNrASoG5cm5VWMP4dwjVOUKaJ2UjS/k8JEzphcCViXWWvG6F7AJnAUkboF9KVKcnZ3d2dW1IHqQpkGhh+/dC9+tyK63w3pVVM7ktyPieRPNgcubVev35No9GIer2eUyLRdkTf2nI0GtHt7S2VSiU3WWowGKh5uXidd5GgScUc6VfK5TItFgvnjjw5OaFut+sS93I5z13lnPi2Wi03aaBWqzlXKSDfSY7Qu6ZZRQ3pYMRsg4Ag4jmREF8GQYQORfRwgMjlclStVunw8JCOj4/p6OiIms0m1Wo1KhQKjpjBPdpqtRwxu7m5cYKOg6+Vd3x8TD/99BP913/9F/3888/05s0bOj09dTE0fGkX1I9bBTSTNo830AacNLFlSf8H1qW9GTmLx7qE8iaFvTao433G7EKkjsGsTAyevJ6IM0N/H41GbuINSASfzZnkXqUrcxPtErLaSasZ/y1dsjJVCyxmSCiLdXwzmYxrN275GY1GzjWKZeu63a7zKPCYV2BXSQK3oPJ1UOF6PDg4oKOjIzo9PaVut+vWQZZuY3gyEGfWbrddu8GLgskFaeSv5so0PB5GzDYIvLR8Gv1gMHCdhGffl6QM7hMQM8SWYZkSomheNGidV1dXdH5+Tre3txHSB/ABBsTsH//4B7169cotIQOBIHOHSWIm8xvxT0AOcKvGkMX9v24hYQLIj10dBIn8ObCkFRhuTOT1Q84zrX/wftnv991AqFnMklrLJDHT6r9O+FyYsq6+eDOupNbrdedKwwz16+trlzeOl3d/f+/ab7FY0NXVlSMYhUKBqtXqWu97k+DyFW0MYoZlve7u7uj4+NjlNOt0OpGlllAOPkF+l8tlJAcf4sweKzeTKhaGMIyYbQicYHGLGQL/oe3wBZEBdEbMYkIgfr1ed+uowT2K6dO3t7d0fX3tzPxY/xIdlqfFaDabdHR0RK9fv6ZXr165gP96vU7FYvGB4OcWPS0zf5J2SEKsQudbp99OPKfnIokHf2ez2awjZrCYQYFBiADvG5hVOBgMnKsJcT+8T+JTXk/WC+DEbJOkDJ8+VyG+c0VQI2lox1qtRplMho6OjtzM78lkQr1eT51AhDU5e70etVot59psNBoPQiqeE9BmcAUjfQbizDAmIG0IX3+UiFwITSaTocFg4DYkTfatWqAZC3i5EubOfByMmG0IMtYKFrPhcEj9fp/6/b6bLSmBjggBhtgyxFSg3EwmE1nHD/nKYIVDOXAJ3N/fU7VapZOTE7fO5qtXr+jk5IRqtZrL4k/knzotv2vCV9uvlZGk/dJ09OcomHcF6xDI646l8r3fGjmDooTs6RgMZQA1zkXs53A4jFh8uCWE6GESat/9agPl93Jn+sgrJwPcEiPri9jZvb09F6ZxdnZG/X6fbm5uHiSz5VbI4XBIrVaLrq+vnWycz+cRC/+ukwPNMgpXLt5BTAKA3MYi5/J5gaxhrVKMP8PhkBqNhlutgUPKfs1Kqx1jWB1GzDYITp54RnA+K1Nm+4eGhFiwer1Oh4eH1Gw2qVqtRogZcgD1+326urqKBPyDmOXzeSckF4sFVatVOj09pV9++YXevn3rXJiIfZGusc8bvAAAIABJREFUSkC6UkLxLr4BNc5tY9hNrPOZbsISwuNlNPKDvoZBUVrMMHuQn4+8grBOaMRMIy9xpAzHbJqUaa5M7r5FPSWp0J4f2g3W+5OTE7caCggbd+lhg3cAxOzw8NDJUFiUvseM1adCKNyDu9Sr1apLYVSr1ZwXBWthcqDdlsulm4yCuEc+YUDCF0MWp7AbVsPuvrU7AGnOxUu9WCxoOp26TODj8Zgmk4maJBHChce0IHUF3Iy8c8zncxfc2el0XLJaXidoW/l8niqVCjWbTXrx4gUdHR1RrVaLrNXIBaHUjCAcZNb/uGWRpICPG2xN+9otPJfnxfuvJBxE5KzYWJKJT47RLBWz2cz1d6TFkVnaJYlJU89NIqR8aZYxPkNQThaCPELi3mazSWdnZ3R4eEiNRsPFU/EJErD685xmCNvgybN3/V3k8hXeFtl2iK1DOiOuKMhxhLuEeTwy2k1mBCDSydeut+u2wyxma4ZmAubEDKQMMSfoQFxgg0SVSiWqVCpUr9edyRqdFeBrZHI3JhG5lBacQGEh9OPjY2o0Gm79NK2DSkLlI2Laufz+fW2UpLNvg0AwjTAe2/CcVoF0s8lnzWNw+IxmpJDJ5/POhcT7AGZmYi1IEDNuNeOKTlzsDr5vMpYnFK7gs6bw79zCJs/BvSMd0OnpKR0dHbllr0ajkSMTnJxhDU3MzoTnAYRlk27edYDLTC6XudyFgo38koh7nE6nEdksV0XADP5+v+/ikOX76KuTD9qzNaSHEbM1ggtN7rdHILAkZgDM74g3AzFD3iR0QAgePligs4GYTafTSH04+UOH3t/fp6OjI2eF0+JcAE7A5JqYXMhKt4MsY5exKdeR4fsiLoZLZv+HxYz3ZYDHlXJixuOvNOtxUoK2SWjKmq9P+6yNmmUtk/kazI7FyQ8PDx0xgzLLZRNymrXbbapUKi5h6ng8joRsaPXeFfB24uEk/F74SgAYG8rlMg0GA3cuJ3Lc4ogJFtJippFszRIagpGz1WHEbM3Q3IB8RuZkMomsVabFY8BlguSuSPTKc4qh02KtNOkqQV2QOwlJCiuVivtEkswQmQoNIFz4aklyQTjXKSA3IQx2UcBvCuskrZuyfkhrF/bJ6/MQA+7ShDIk+wOWZeKbtJqh/4VWyEB9ULbWX9cF2SayvyXte5oMub+/d+7M+/t7ajab1Gw26eDgwCmc8ty7uzuXcgjhG71ez81gfw5KlGwjqTDwZMfVapXq9TpVq1Xq9Xre9YiXy2XEYqZNSNH6G9p919t022HEbI3gQpNPhUesCRYs58uzaFpkLpdzy3DwzPuIu4B7dD6f093dnSNkUrhzdwKsZSiTl8eP09wWsoNLLU5mnObH8uVYVmnPpzzOsB7sspYsB52Q1QWznGE1g8I0Go3csZycgZhNp1NHzO7u7h4MhnyGZtwszU0RM6186baSSiWXfRLyeBwDYra3t+ey2iOov9vtEtE368/e3p6Lqe12uy5Rd6fToUqlEkmbsasyQXvWXIkn+qYgIB9lo9Gger1O7XY7MvmBv4vcQMAtZiFi5iPT8hhZb0N6GDFbM3hHwndpMeNrYxI9jOXiFjNo5SBS3GLGiZnWwbigh8UMxKxQKLhgUZnLRutsXNhpVkEpkLmAlJm/k7ZjmmNMMDxPrHOA1Vw1PkKC95gTM/QlPqMZ4OtlcnLGl2biIQK++9SsVHF5z54KmhVds1DzGaZQOCU544M8lxl8DVK+DmS326V8Pu/OQQgFyO7e3l6EmDWbTTX10C5CPmvpXUFblMtlqtVqkRhkmfqC6Nv7i5AaLemxJGVyfNpVorsrMGK2QeDl5hYzaCmaq4Tom1bOBT+3bvGyNfeh3Ii+aeW5XC6y7e3tuU0GioY0Id8AJqeqaxY4Xzut8h/+9w0YBkMayH4IooF3C1YbKE6wmPHZcETR2djcncnJ2WKxeJCTkNfD5y6Ug+U633ltsNb+l/t4n0xyDcgg5Oc6OTmhVqtFlUrFySlthuFoNHLLOR0fH0csQLtMJKTCqclmrsBjAgBfJoyXhU1mB5DrKPueM66pubUNTwMjZhuANOvz5LLQUnxCD25HuEoQZIzcPzjW59LwdTIMKpyI8X2aC1NCXk+avOW5vjKSwHdcyMViMKwK3l98liyu4CDGDKkdtPefW7Vns5mbBABixgddLg/4oMctJT430jqgKY2ybppS5FOUpMVM3kcm83WGJojZ5eWli4PV7hWpM9rtNt3e3j5I2L2r8kDKN26NlN4MnnCWxwz7FGIQMyzJxFej0MYRgD9P+W7yT8PqMGK2QUhXpkbMcBw2Tsw0t6M8XutQ0pLGTeAaKeOuGHmOj/hxxLlBfefx/x6z3wSD4SmgWczkO83dmXxSjuwD6IecmMFiNp/PXbZ6aQ3RBj1OEuHakuetA5r7VFPM5Dmaa4z/rymBcM2BmO3v71OlUnGzLWUd7u/v3QLeNzc31Ov1XJiI1q67AkmI5DvI94OYQUHA+q0+yNx63K3uq4dGqM1a9vQwYrZGaMQEJmQIZmgomuCSGjlIGWLLuBUOpmweJ+YjZETfOiUmCkiSh2M065PmKsVvn0tFM4v7LGhJ92/CUmDYLmziWSdVNPCuI51NoVCILGaulbtYLFxOM2xysk7c+6+RGa7IrQM+K54kZpqSqX2iTFkGPxdkd39/n+r1uiO+ILKSGEynUxoMBtTtdp0V6O7uzsnEXZUTUkEANGUe4wVPdOy7dzlTOM5aloR87WobbxuMmK0ZWqeAYJ5Op24JJh4gKzsiNHLpxsR6lxox49o0F2B8Fic0dj5RANeXpE+7Dz77Ugpteby06oVM7EmQZABblxZnwieMXW13jVDw/3zEiOcZlNZsDvQVOYOaT9aRio6mfMj+tU5Cpl1PWki0+krypg3ucZZuLDeEXGYI5YDiKc+bzWY0GAyo1+tFiBmsSbsKtBOXmaE2xzjgixPm5WIskhPG4siZZuWUv82KtjqMmK0RPgsPOgMsVpzMaBYuWMy44N/b23PEDOfDDQnBJTUgEDMicpoSzNe8jvjNSZ+25pwkW9I6KO8bZYeOTYI0VrV1YFPX2UVsQhhvqu195EySFPQ735JM3EotiRniy3hflnXQygqRyHXAZ/33EUletzhi5qs/Uvog/QMsZnwFAF4WiFm323Uz3mezmVNud5GcybaRSWI17waPHZbvLH+fuMWMp23xKenSQumDj8AbksOI2ZrBOwFcmCBlMsGk1ikymWiMGeK/JGFaLpcREz9ixiThk7PKtDw3vO4hqxb2a7MvQ2XyT63jrtqZNyUIjJT58VyEsVRGeN/B//w7t2rn83lHBHi/g1Uc1nLMhFsulw9S30grCerAy+N1XTck+dIG+1A9QhYWfk9cGdzb26NSqeRSQGChbiJy7cbPRbsifhdpILLZbGRdYZ5eRFqg+L1q9Zb/h457Cmh104gSnyHMZ9mHJojh3hGviCXDZrOZG3c0Ygcvj6+fc2upYTUYMVsjeGcFMeOkDIvtatoy70A851gul3MmaCJy5Iu7RUDMtEBiHtPGO69Pe9UsZb57lL9XIWU+JD3WSNP3x7qfwboEvrRM8XffR4R4X0KMGSxnIGLS5Y/8UZj8w4kZrN2apZqXoVmn1oWQbEhiKef/+d4NTspwHk//0Gg0aH9/nw4ODpxlTBKN+XzuCC+I2WAwcKsAIPwD52gJvTUPgCQ3/HscIX0KyHEE1wcg6xFbho2nFZFpMDjx516UyWRC0+nUGQDkM+ZjD+rG22QV2W54CCNmawZ/UfmMLGkx0zoczs/lcg+IGTRwaNkoH4KHLzCO/2UHkvmA4jRF370lFUyaELMObNgWSEuQRoo0oC/FWcxQLgiEJGa5XC4SgkD0bWD0bbj+uglCnJIVQtwx0pqPDUsN3d/fO4tZs9mkwWDg2ooff3d3R9ls1iXv7vf71O/3qVarRUiDTOirWXd4HXz1TSsvV4UkjbweqD+3lvH3T+Z7C1nMsETTbDajUqkU+Y+fv1gsvDHCvJ0Nq8OI2YYAwQMSxgP3Q9ovdzny1Bab0NQMhh8R2uAnwff53Eh7e3vqjGfElHGlTBvstetJq95zkQPavXAXHdJAyHWC8XwgSxEzBYvkaDR6kGg2KamMC+HgBOdHgxGw9SLspzI8Glzg8uBfbrr35Y4BuIAycmYwbAa+0AIOLb5HWz1DkwF888kArY/LuJ9dlwOcKEmLJSdmWAuSEzPpbuYz3uHS5MveyWtKxFnwNWJsMDw1jJitEdx1KEmZFMg+1wQX/EbIDIbNQxI0gPdRX+C1jEfjlvM4i1lS69hzkAf8HmS7hixmkvyCmMFiBnexXDs4TViFhVsYNg1zZa4Z0mKWVlPmU5+lNo7yDQbD48GJgYzH1Fw3+M3TZfB0NlyR4nE6fAUAni7Dl87Bd31eB/l9F8HJEidRiDXDJABuNcNSVlLGTiYTF2cms9oncWXGtbXBsE6YxWxD4KSMa8ohYiaXSdIEvsFgWC84SZNAP+XETFpztBgzTsyQ+X+VGDPt+y5CWhaxD+2LmZX7+/tugW4tJQRIL4hZr9eLELPQ9QyGbYERszVDxpaAlGmuTA4ZYyHjV55DbInBsG3QXI/8Ow8g58SBpyrQ4sw4OeOxUDzzf5JYU1nH5yADtPtKajHjyXw58Y2zmEn56ZPBWn2k29VgeGoYMVszeMeVAf8hLVnGl1mMmcGwGchYJw1yoEYcFHdl+qwyWsb1JMSMlxU3i3NX4UudkcvlXLLZcrns0pL4yC9SP4xGI5c0FZZJIvJ6HLSZlo9JFWIwrAIjZhuCnCrPhTE/hoPnIuMTAMxaZjCsFyFCpvVTrJcJi5m2riEvgy9kzl2ZSeokSdlzJ2dE35Js8zUzZVsDWAVgMpmoxCyN7DRSZvgeMGK2AUA4J7GYafEVPquZwWBYH0Kz9uQsau7K1GZk8vM1YhZnMdPKeo7kTLOYEZFLsh1nMYOs1YiZNjNTQ8jNqZ1nstjw1LBZmWtGnEDVoE3Jlxr4cxHEBsO2IOmgqylSiDPT3JjyHBljpq2VKy1tfHYoL++5kAKeYZ7ooZxE+xaLRbdxixkHiC+WvZtOp26llXw+nygthjYz14e4/w2GtDCL2RohY1VkbIhGsDShAVKmCSCDwfC0kATN576SxEFzY2rgFrOQtcyngPlkyK7KA6l88vtCu2BmJkgZ4vk0Ekz0bd1MWMt4PB+umaRewK62rWE3YcRszZCdO+Su0LRhbePHGAyGp0OSdBQaKYqzmHGAmGkzMtME/+P7c4DPfYhNs5hhooVGmKXFbDqdOmIWIsBa/G5IXj+X9jdsF4yYbQA+oa7BJ3B90/gNBsP64CNnRA8tZkhrExcDyomZXJ5NOzZkNXsOqRu0cA3tGLRvPp931jO0tySrfGkmuDI1YubzWITqYTCsG0bM1oxQnpxVywKMnBkMTwutTyVJmwGLjly/USsLlvOQxUyTFyFr+S4TBj7JyUfOQMw4KeMWM9kmnJhJV2Yolk2rW5J9BsNTwoL/N4g4V6Z2PJE+MBgpMxjWA40QxfU/btHxJYCWKR2SrADiCyzn+58LUYDlS7sf/MctZqVS6QExw7kgZnBnasRM+/SlIkrzbAyGx8KI2ZoRF/CftGNbfJnBsF7EWaI0ywygpbTRwC1mPJ9hEsuNZkXCtXY95gxtIi2H/J5xr/l8norFosv+j7bm8lGuRwpiJnPG+aySca5oLR7YYHgqmCtzQ1iVlFmHNxg2B18/jbOkwGLmSwItzwMxA1HwBf/76sH37XpeQ+m+9RFknsi3VCpRqVSiQqGgkmCekoRvGgmOk8tx8cAGw1PDiNmaEbKWpUEaE7vBYEiPkMUsjvjwlTlCcVLSYiYTTsfVRyvPJxt2CZKcSnmJ+4O7WAb/A9xqxme+cmKGdk4bW8ax6xZKw3bDXJlrBGIQQhphkjQYmoD3/WcwGFZHXPA/J1fyf07KODnLZrMq6ZIrgPiuj2vI68ltV0kC6s3b4v7+XiVcchKAlmBWTrjiy99xUhZCkpQZFmNmWBeMmK0ZSWZZJcFz0IoNhl1AUnIk/9NmFmrWM8iCkJUoKUHENXaVlBFFFVZOzDQCjNmvnJjJNkGZnPjKWD55bd+zNXlr+B4wV+YG4NO2tLiGkKvShITBsF6ECE7oP2k1g2vTp0xpFjPptou7VpJ67QIkKYtr5729Pa8rUytTJvONay9Ngf7RZK92v0ZYNwezmG0QPEiXCyKJUIyFxZgZDOsHV5QkafD1WbjJQBxk8lPNaiZJiWYV48dL4Jpp0vBsG9DG0iXLl2gClstlZGYmn5XJvRNoN8zORC4zELOQBwLuT9SNE+w0BHrXIfuA3O+DuXgfDyNmGwLXqIkeEjMZY6b9zzXDx0wkMBgM8eCDMQZqH3h/BHHQSAMf3KVLE0BMmk8Jk5MItBUDdg38XrX0F8ByuXTEV6bL8BFXScx42SFrJp9woBFkWc/nCE6aZcx0CHJcM6SDEbMNwhdrEkKcxcxgMDw9NGuVtGj5zuM5zTSLD//uiyuL6+fcIsR/77p8kHJOazs+AUCutCDlKUiW5srUriPPl14OSbB3vb3TIK3lzLA6jJgZDAZDDFaZqMPPC1nMNJg1PJz8VZsE4StDxvIliWWTblHfZAyDYR2w4H+DwWAIIEkgvkYQfG4y3z6NLPwoIQtxMV++40Pn+lzGadqUH+s7zwia4alhxMxgMBgSIkS8NIuOdpxmMdNcdj4X6I8MHyELkTOZxNc3uYqfI8uwZ2HYJIyYGQwGQ0rEkTJJFOLIWZLB3wjBV/C25Ql9fcDkDV96El4uPyfumVjMr2FdMGJmMBgMKyI0OGtWHM01Fhr8fwRrjSSvca5jInqQyNdnNeNuTJCzkCvT50r1TQ4wGNYBC/43GAyGFPARCJ+ljKe3AEIE7EckAb5ZjtosQNnOnKD5XMJa8D8vU8OP1P6G7YJZzAwGgyElZAyZj6SFkNSF+aMgqVswbYyZnACA/avgR34+hs3BiJnBYDCsCB9J0PaliUf6EQlAKOWFPCZN23JS5ost01yg/FxzZxo2CSNmBoPB8MRI6yL70Qf7JPFlccebW9LwXGAxZgaDwWB41khjrUxK9gyGdcEsZgaDwWB49kjiTtb+t7QYhk3DiJnBYDA8Emky9vsG/x8ZaeO3kibh5TM3fek1fDDXqOF7wYiZwWAwrAhJDLRAcW32JVF8DrQfDUmIrJaUl6e/8JEzELOk+c+SxLAZOTOsC0bMDAaDISU0QqYdk2TwtpgmPXVI0uPjztWImSRn8vjQb1kPg+GpYcTMYDAYUsBnnfERhSQpGrTlm35UksaRJIVFnEUSRGxvb89LyLS2156JBiNnhqeGETODwWBYERohCFnTfC60kPVGI2/PCWlWPNBcmPK7RtD29vbcJi1mPsQ9HyNkhnXBiJnBYDAkRMhaJj/jkpL6rDFJ3Gs/OjghC61/GefGxDHyHGlNe66k2LCdMGJmMBgMKyBEzkKzBUNuyx813izprMw4N2acOzMuvkw7VyNpst4Gw1PCiJnBYDAEEAosD8U5+ZYSkgiRsh/JUpMmvQiOTxLHl5aQaWX8SM/B8P1hxMxgMBgSIIl1JETUksSU4TiDPz2FRoDj2nxVa5mvLrw+BsNTw5Zk2gDQqRETwffz/7Tz5LkmDAyG9SDO/Sj/883gWywWdHd3R/P5nJbLpTrDD7ME+Yb/eT+XJI7HVj1XSw7u0RdwP5/PaTab0WQyobu7O9cW+F+SsVwuR/l8ngqFgmtnLQcawK/J5TX+w3V+BIT6BNra8PQwYrZmQAgQRTU9CA5fvIIUSmnz/BgMhtURNzOQSJ8xCeIwnU5pNpvR/f29Iwg4F30/l8s9mC1IRA/IAicanFDwGYa7Lh80OYf729vbiwT6z+dzmkwmNBqNXBtLgsBTZOTzeSoWi46Y4TpoZ36+JMH39/e0WCyIiCLP6EeARsqSvl9G2B6HH+ct+w6QsSNcGHBiJskZFw5coO+q0DUYdgVa3BLvk7790mI2nU6dNYe70Iii6RtyuZwjaJwMyPIlueNyhOfn2kXwduFkaLlcOnLF2/7u7i5CzLTnwK2SsJYVCgXK5XKqxUySYbQ1t34+ZyulRJylLITn3jabgBGzNcM3q0eSsbTxKwaD4emhDbpxAw0f5LXNZ/2SebUkuQpd97nJAE4+pUIrFVtYJEF+YdHSPBKSAHOLlzajU2vX59bWqyJE1gxPC3Nlbgg+TUsKBh+MkBkM6wUPO8DvOEhStlgsaLFYREiZzLPlI2bSNSpjeDQZ4At63yVo7kPZHryd5/M53d3d0XQ6pfl87tpbK1PG8qW1LGpy2yxChnXDLGZrhmZi1zp2kpgWfN9VAWwwbDtWdVVJUiYJkyR8GmGIS3wKaK7WXQYnUVqIB79fELPZbBZxF8u20CxmIWKWpA1/BBemYTtgxGwD8JGypO5LfO66ADYYdgG+/hoiSiAMsOBIq5lGzDhZkGkcZDB6CM9JNvjulVskEWM2Ho9pNps5VyaHnI1ZKBQon89H4tU0+NzORsoMm4QRszVCi1VZpYNLzdsEhMHw9PD1zbg+u1wuHWFAzJNmxZHWHD4rMwkR9MU/PQdiFkdGpbWMEzPNjSmD/kPETD4fjUibzDVsEkbMNoRVta/nEENiMOwSQmEHPsv3YrFwFjMe9+SzmHEXW8iNGUcIk8ao7gp8bka08WKxiBAzHvzPy8hms46YcYLmS3nha7u4EBSDYR0wYrZBaG4KDRoR82lxJiwMhqeDz2Km/cf7n3RlhgL1ieiBxSyU01D7ncSatiuQEyg0ZZS7MRFfxhPMcmQyGcrlclQoFKhUKlGpVHIELZcLz3fTrh2ypBoM64ARszVCc2GsQqjMtG4wbA5x5Ez2YZAKnu/KR5Q0YuYLdvedK4niLpMyQKYXkZZAPhsTFjMQMy28Y29vzxGzYrFIxWIxNsYsidWM7zMY1gUjZmuGRqrSni/LMWuZwbBehPqWZvXmxCHOYsZjzHyzBePI1nPq+9xixj/xH5FuMeOzMomihDWXy1GxWIwQM7kkU1x9UFZI1j6n52DYHlgeszXDN8tHSyjJj8O53MSvxasYDIbvAz5g8xgzEDN+HD4lMYsjZZJE4PznpJj5lE/+idiy8XhMk8nELXnly2HGiRl3ZcbNypR1CuG5tL9h+2AWszXCNxvLNzUex/DztU0eZzAY1gtffKcvxoyTBY1EyeWYODlLkiInjXVtFxAX14Vs/3BhgpjxheIBTszK5bKzmPHM/2nidZ8TCTbsBoyYrRlS2PiSKGrn4dO3vIvBYFg/tD6nETMZY6ZZtzRXpi/LvaxDyL22y3JBujI1SIvZZDKJEDOOOIsZv26oTrw8c2caNglzZW4AXBjLjN++Dg9BhSniWlZxg8Hw9JCuwyTHw5WpkTNZBl9cW5IzX/nSpSldfbtMDriLF7/5J0jvaDSifr9Po9Eosk6mtE5ms1kqFApULpepWq1SqVR64Mb0kW38p8WhaQTQ5LBhHTBitmZILTdu4WJ+HreUSWJmMBjWCxmKoAGDM8iDlmBWlgE5AGLmc2XKa/hI2C6TMkAjZbw9ZrOZl5hJ8oscZpVKxREzHviPMrWwEO0ZyPZ9zGQugyEJjJhtCNDkIIQ5QZOQM5F8FjMjaAbDepCmf3GLGY8x0/opd2Pm83lnyQEx064Zspg9F6QhZsPhkCaTyYN4PhwPixknZtyNGbKWAZK0aSk5DIZ1wYjZmsEFjVxQV66TJwGhDqFvLk2DYbsAaxmWCuKuTBkXyq3mPCs9t5r5LOLabMXn0ve5RVCb/DSfz2kymdBgMKBOp0PD4fCBxYyHioCU1et1qtfrVC6XKZfLueuErGXcwqmRMo0cP5fnYNgeGDHbALjQgBDWFjAmeug+4a5MTRs3GAzrgRyoJfggz9fK1BYyJyLXzxFXphGzNH2aE41dt+Zo7lnetpPJhPr9PnW7XRoMBs5ixuUgPBGIL6vX69RoNKhcLlM+n6dsNhtxfWquYe2ZS9nsq6vB8FSwWZlrBjevS4sZPpNOANDW4DMYDE+LpDMe+WxCGfyvKVDcag43JohZyHLOr6VZlkJ13BVoKUi4NXI6ndJgMKBut0uj0SiSw0zOdIXFrFarPbCYoVzNxRx65nJCiKXQMKwTRszWCBkvIWPM5AQAKZQAaI1SCzermcHwfcCtKpxA+PqnlAHSai6JyY826Mv2lIQXyzAh8J9by3jb8jUyq9UqVatVKhaLDxLLJonXk/I1SWyawfAUMGK2ZnBBy9NlSHLmI2VEUXemWcsMhu8DaWmRk3Tk7GnZT3n/9yWX5XLAZ8V5rn1fkiBOzqbTKY3HY0fMFotF5FxYIzGpAsSsUqm4GZnadaQbM45oPecJGIbtgRGzDUEKZR5b4hMIMo+Pbyq+Bs1Mn1QzNIFj+JERCr7X9ssYM58bk1vMeIyZnJn9I1rMONBmmrUMgf88saycVIGM/9xips1+33X4XNraJs/TysH7ie+hccH33fA0sOD/NUK+2NzUDsExGo1UbY53kNlsRv1+n3q9Hk0mEyKiyNRvGZTKNXeUtbe3p8ao8MWX5/O5Ox7/yeSN/FN+l+4IDbvUiZ+yrs/NyvEcnq8G9A/foKQNhIiBGg6HNB6PaTabRfqZbKu9vT0qFosR0jCfz10fxSQAWIxwHVk/Wbd1Q5vViP1aKEac6y80w3G5XLqksr1ej3q9HnW7XRdjBlnFSRnkaq1Wc/Fl1WqV8vk8ZTKZSFqNEKnh9fHF/mrf1wWNWPHYZSn3sdC7jHXk7xWPy0Pet2KxSJVKxb2TfPzAuZoHyEJqnh5GzNYI6fZAByiVSi44tdfrRUgT0cM1NUHMut0uTadTWi6XtLe392BKviRbEET8WH4cdxUgmJZ3YByDOvFzpctFc7NoAkVeH/uTIM0AtIqgWOdxnBwSAAAgAElEQVQAFyfgk/wXql/Suidtl1WOk8931xBHyvCd9zMenD4cDmk0GtHd3V2w/fb29qhUKlGtVqNSqeSImSQMXDEKBaZvAvL6kuTguyY78N0nLyQJQvvf3d3ReDx2sq/T6XiJGU+TAVJWq9WoWq1SoVAgIooQFI6QRSnkZfCd/5QIKUByNj9XsvkM4fv7+wdEVD4zLGEliZkm5yU548qD9owN6WHEbM2QViqu2fFOoAH7Z7MZDQYD6vf7jpj5zNGAFOq8E2naLY+H0TpbmgHXp1XzuviEdly5mpb7FHgK0uNDSLg+Rf3T1M8EZhihttEsLdxiNhqNaDweO2Lm66N85iD6P/orYs5grYjrf5skbNq1tMGa/+9TMDRiJq9zd3dHw+GQOp0O9Xo96vf71O/3XaoMLlMgV5G/DFazSqUS8QDI+0hyrz5sqh/xttY2/M/z6UmLGQ+ZwbuFMYG7gJGMF+Xd39+79pPXk6RNwmTN6jBitmZoQod3BEyVl1gulxGzNBbu5YkVib65KReLhTrDk08ckGZsGZNRKBQiuX5k/ZOYrH1md6nhaS6aJNCOC5n6kyIJeUpr4XsM4gZh1GeVujym/kmsnZskCE+FkNXEdzzvW7PZjKbT6YP4J16ejDGNW5JJDnza/5uwUErFjlvFpIUPMiIUBsGPkQligWw2S9PplHq9Hl1fX0csZb7lrkqlEjUaDTo4OKBarRaZjbmJPrsuaMQMbUf0zdVIRC4Z70RRELRPWMp42pY0bZXW6m9IBiNma4b2kkO7Q/AvFx6cTEEb9xEznm5DkjN0VBA8LRhZxhaAmEmBygWg3LT7xT2jk3PCyIUvJ4BxSCMAOAkMCRl5ns/1Kv9LOxiuyxq3CikKabj8/Dhi6Lt2WqKdFpvSwrkVyHc96T5C/9Tea7yTPIehnJmpDYq+57VJJQHX4f1Xs4ZzZQsyh58j+xPiYLlVUIZwdLtdurm5oW63S+Px2FmBpEzKZDJULBapXq/TwcGBi9/L5XKJFMpthaYUwuoFBQATSDBejMdjGk8mdHd398BrwtuBxzzztUR9xFurm/Ye8PoaVoMRszVCarTcUoVcO5KY8fMgvEDMxuNxhJhJSxQnQVwLl1P3ZWfiOZWIyAlUInKdlAtd7Tfv+D6t6yk0sTQd/rHX8xG3tJaKp7ZsPaZt+CD42Lo8xlq2iuBet4XIN8j42gv9kytP6J+yHG4xg7WMK2YhS4W0lvnquQlwOaP1D01xk8+MyzfIEin7iIgmkwl1Oh26urpyxEwmlcW2t7dH5XKZ9vf36fDwkGq1miMbu55iyGedBDHjMcqz2cylFZnNZhElG2UAPOYZVjO50LtWD1/9DE8HI2YbBDpWPp93szKh1Ul3AYBUGZguDsvZbDZTE9NCSEH4awIfZSIWAfEI8/k84q7gs26kG0O6InFt7ZNr0BK+QNzHWgiSHMcHgSSWNV+dktRjFVdZWoH3lKQoSfv7ynkMWdgGIR9H/riyg3AD9E/EmHGygXO4dYJbzHnaHM2qzcuQytWm2ktTxlAn7JPfuUyTiXQ5YZKEA/JiMBhQq9Wii4sLarfbD4gZETmlslQqUb1ep8PDQzo+PqZ6vU6FQiHWar4L4PJU9j88F8j08Xjs4vEmk0nEUyJlCp8dzD0mmmVcKica+TY8HYyYbRggZkiAWCqVnNDiQIeDeZoLfmjlCNKUxIznSJIZr4m+aVuIieH5lxaLRcSCx7UxTso0lwauL/dpAj3kutE6+bqEa1pCllQQaYRMlpPURZAGSa1mIatLyKKmCe2447T6rUq81z3I+qw8/PpS4QAxQ7oMbVYmyEmhUKBisUjFYjFCzHj/lwufy2vL2dXrRtw773t/pAWfW/e5ZZ2fz2Vev9+n29tburi4oE6nEyEaALf61Ot1Ojo6oqOjowgx43XaNcjnz9NWEH0L0IdMBzFDaiU+iUQq05jJWq1WXYwxX7OVE2yA7+e/DU8LI2YbBDqWtJghzw7fuDAEiYI7E+SsUCg4AceBgE6ULWM8oF3xbNqj0chN3Qfhw/W1ewh1Rl53ucn4Nd/g91h3TRqBkab8JAI+qbUuDqHrhNxeacuUbR0iSVIoa9cOkbI4QraNQt5XJz4LDn2TL67NAYWMkzLuPuJKT1Irrhwk1wmNnPmeN58FycmY9sllExFF4vV6vR61Wi26ubmJzEjn982V3P39fWo2m3R4eEiVSoVyuW/D2za+V2kglW9pZeQzg/v9Pg0Ggwcz+KWVi6dt4Tn1ksqmTSoHPxqMmK0RmvYNYYJEiKVSKaIxSy2Fa+UgUoPBgAaDgZsezl0rmUzGaUF8ORKZtHI2m7lO3G636fr62gUj12o1ymQykSS18p5wL/y7FNSoF9yguDeNpCVpx6QWGs1sn9YyFkIS98gq1qQk133stUKrRjyWUCZpkzgL6y5YNnCfPL6Mx5ghxxYHt+zwmB4e2wnI9tiGwS/unZEyS5IHfj4PSJdWM8ikbrdLrVaLut0uDQYDR3g5stksFYtFajQadHR0RM1mkw4ODqher1OxWHQybNvfpzhIUox2A/HE+ICUSr1ej4bDIc1mMyKiiOznG4gZ0otgFisPp0mqHMj92/DO7jKMmK0ZUrPgxAwmZD6rRnuhJTEbDoc0HA6pUqk41yOIDsqvVCouTxKIH/5HeUjeCGKG5IwYKBB3hnprQjj0HeCxadKapq155/st20f+J9ucC5ekbpgk/8VZhkJ4KlIW+h13T9Id9JRCNGQtw/8+S1vomCTXeAx8dQodw2dkwqKNeE35rmrErFAoRFIUaFawJO/7usmsHIC5K4w/M2w+q6zP+s4/5/M5DQYDurm5oXa7Td1u11nLNFmBFBmHh4cPiBlRWBHZBUh5SfT1vhFHvFwunYURed5gMcMkFG5Z4+Xkcjkql8vUaDQcMZNEOU4x0OSIrKshPYyYbRB4yWWMGQS0ZkXCPp5dHDEEtVqN7u7u3LmZTMYFwiLBopbLB515uVzScDikdrtNV1dX1Gg0qNlsuhmf2kwmqRVLQsSP4fdM9NDFkdS15SNn69TM4ojOqteNq/Mqg4ivrj5yEUfyHjOIhZ5p3HnfE3HPU3sPZf6y6XQaWUGDAwNpuVyO9HltFpyvH8V9rrMNtTpqlj05SUhunITy81D+ZDKhdrtN5+fndHt7S71eT02TgWuVy2U6ODig4+Njajab1Gg0nKcASuiukwPZ5ngXYd2CtQzjQr/fd7GORF/fPe5exzOAxyWOmMXVK+44Q3oYMdsApIAFeYK7ERr0crmMJFAEeBJLzFRqtVrUaDRoNps5sz0IX61Wc5oj4sbkoIIyR6MRdToduri4cFPNh8NhpEzNLaF98hQeWueW8SRxbRW3P+5Y6SIKnZ+mfJ8J/zGIK0sjrBxJLWY4VxLcNHVJC195/7+972xuJFeyTbZMU6I3EuXb7Nw7u/v/f8pGbNzdMe3kKNGJFCnK8X2Yd9CnUkAZSuymZvNEVIgqA1eFxEFmIpHm/I8U/r42DJWR/TRZUxa3+hjxAtnROqTNAEJEOkmT8ZLQ5M+30s9HXPW9IFN6panI9/oPh0Npt9vy5csXubi4kNFo9GTPR2BlZUUKhYI0Gg1ptVpSq9XcFky8lzDn85qg25cD8op8l6cIKwIiy6EyeHU9JsRwWYGFpFwuP/ExiyP6oYmy4eVgxOwHgYUbiBmENAT13d1dxKQB8Oz8+vraEbNmsynT6VQKhYLrUOwIy8SMwZq5yWTiZqj1el1arZaMx2PJ5XLBxQMsKHwDijZP4Fnd4bMQgLSdP6RReKn0RaIrZpPuS5uerywhjVcIaeqghWqW9NPUJ2uZ466nGRh+BrQWG5oy3pHDpzHDVmx6BZzuV6yN9mmffyQp0/n6ZFNokoLzOtgsa/DZ//Tx8VFGo9ETYobntcYsjphxGbgerxGamIlENy+HlrHT6chgMJDr62uZTqeujRF8XOS7Kw3CZJRKJalUKi7uG8t637cWkt8+2e77hg3pYMRsgQh9kLxh7ObmphQKBSkUCi4shhZyIFGsMcPsCEuiV1ZWXFyaYrEolUolotaHHxoLt8fHRzfbyufz0mg0ZGtrywm5crnsVmhqkuUTzr7f3BY/YvYKQZA1DxYki0YcEclCKNNoV0J5JGmEQteyEsO0ZM53X0hTtEj4iKvvW8dEiVdJQ7PjKyPHjNIaM01ukuroGzQX/d0yifJpzn2Eja9p8yaXn7eeg1vF8fGxdDodGY/Hke3kRMTJuo2NjUjssnK57BZTpZ08vQb4rB34bu7v7507Co8Jd3d3rp0YvKdooVBwG76z+TeuHH+H9nwNMGK2YOiBdjabRWbPIFGVSsVt2stgEgVfAiwhx/5xMGfy5shIs1gsysbGRsRUykLz9vZWrq6u5M2bN3898//V2js7O7K9vR3ZPkZvHcOauJBwZsLD19Muy+Y2CP3vu983iGfVzMQhLUmYJ0+d9nOEYUgbx/+nNVn4nk/CIojUIgYHXz/15cXEDD6f0FCgb2mSD60F3Aw4mCfS1GEyQoSLNU1cpkVDk0Hu0yAK/Fdr0JGGliG5XE7u7u6cb1S73Zbz83M5Pz+PxC7jciDUCPbFrNfrkWj/TCCzas6XCXjP2vSLNn58fJTpdCrD4dBN1kejkfNzBLTcZW0Zjs3NTee2kqZcWjPmg2nL5ocRswUiJOwR2A/EDAJmPB5HYu8A6FggZp1OR2q1WoSYIR4SOl2lUnF+ZlidiaX9XBZsFHx3d+d83tbW190uAPA94GCYPDCwKUZvXKwHN03cfMFvdb3Rflm1N0nXQ9qQNM/z4JJmUMx6TxwxC2kh05Rfa+TSkK0s9zCymoZ/tgD3lUFrdwC9GAfEjE12eB7g6PSamCFNIImU/0hNmc7X568qIl5Sxm3Kvk56b+Db21sZDodycXEh7XbbkTPEhtMkD+GAsFgJKzJhxvzRpHWR0MSMyTATs06nEyFmvkVkrBSAtgwHogPwvVmRlrAZkmHEbMHg/SpZpc+CularSaPRkKurKydYfGTm4eFBJpOJDAYD6fV60u/3pd/vS6PRcM6cvAS6Wq1KrVaTZrMpNzc3EbMBBhFEi76/v5fLy0uXRi6Xc2lhgQIWKeDQxFPP5FF+H+Jmsj5CxgNRnO9CiHz48vdpI9IKpHmFVwhclzitli5jqI1C9+q/SXXIOoPOShiymid/9kCL9w63g9Fo5CVmWkuEvXFZY8Ztpc17fF6DNVa470fWHWUIXdeaP/7fpyUcDodyeXkpx8fHcn5+7kxyCNczm33f3HxtbU0KhYLUajXZ2tpy8cvK5bJsbGxEJrY/g7y+NFi7qAnZdDqVfr/vzJi9Xk+ur6+fbF4u8l0uYpzAxB0rMmECToKZM38MjJgtEGx24K0z0EHevn3rthHZ2tqSbrfrhAuCu3InQGDY6+trF4Dx4uJCqtWqrK2tSalUcukWCgWpVqvSarXk8PBQHh8fne8Fgg/e3t46s4yIOFMCBCF8FEqlkpthwR+uUCg48yb8GJJMByy44wbkOG3OPAN/CPNo4fg+HVfpueXB9bSauyTS60sv1J7zlDVUprSBg0NCPs40wn9fGmnaQu9LiLhR8PVkDRLvEQmfUvQhn2YHfQL7SPrqG0feFqmh8G2rxuXha5qY+Ygk4r9hQnh8fCy///67nJ2dOQ2+3hMTq84h1w4ODmRra0sqlUpECxnS0L82sCzl9nt4eJDr62vp9/tyenoq7XbbOf5jP1GR7zKKJ7Lr6+tSLBal0WhIvV53fshwhcFzcZqv0KRWl9MwP4yYLRAgZTxLfHh4cCZBEXHEbHt7W87Pzx0x8w1wmCnlcrkIMavX61IqleTh4cFps2azmdRqNUfMEIaD95tDLDPM9EejkSNuGCBWVlakWq26xQTVatV1dpg42V9EHwwtuOM6cBoCk4SXMLH5gNVReqPquLx82izffWlJWRyeQ7aSNHdxzzFZfU6548wgixpstRY2RHhQx7u7u8j2N5qYsZaHF/toUyZr00XkibzQplGe7HFbx2mRnwsmBD7ixeDysvzjySlrHG9ubqTT6cjx8bH88ccfcnZ2JoPB4Ml+oxwHDsRsf38/Qsx4BfnfhRxociYiboP3y8tLOTs78xIzTaxwrK2tSbFYlHq9Lo1G48kCMf2th76rEDnDc4v6Fv+vwIjZDwQGdG0qRPywUqnkiBnu1R83nI7H47FbwQQfi8lk4kyMcI7d3t6W6+tr51+G3zBh8gof+J/d3t5GNHe1Ws2pvtmng82aSeTMZ3pJo/HR556r8XkO8RD5PliyP13a8upzcWWJK0Pc+TRpvkR5Q+nw4PsSeWssUguShnji/SOG2fX1dSRulC4biBlMmXALgAzgevEz/L8miL6Jz6IHQr0Bto8wxF0HMWNSiy2E2u22nJycuBAZ4/H4ic8d/Gc3NzcdMdvb25NGoxFx+tfvidN4beA64DdWA8Mn7/T0VC4vL6Xf7zuTup5goP3YjNlsNt2Yg7BIuJ//pkFILhg5mx9GzH4QMGBxoEQmULVazcUdW19fd/5fHLSVI+djk992u+0iX49GI9nY2HAmlEKhIFtbW5FgsoPBwPknDIfDyOolzGQfHx+l2+3K4+OjXF1duRWevEmwJma+QQNl9s2ssxABTfBC1zgd7aScNu20JCFkHpy3DmnaZZ70k8hUUtrztE0ckr6D56T9XMTN9DUxxwQJDurs18NpgJghdhRWSGtihufiyhYqz6IHQE10fJMwET9543KDVGD7oF6vJ71eT87Pz+X09FROTk6cWVgP7tpFY2trS3Z2dqRWq8nGxsaT0CM8QUgT2HpZwfXA75ubGxkMBq7d9A4JIlFyjwUTcJ1h/zwmtT6LRqgvsDYN5/iv4XkwYvaDwAKdBQYWAFSr1cjqmLu7uyeBWtERMCgMBgNHzHq9ngyHw4jWDcQsn8/L/f29DAYDuby8dBvdcmeC8ELH7na7MhwO5fT0VEqlkpTLZbcnnSZmHNDRR8xC2jQfafPd5xsEQudEoivA0pANXZYQseH005LFuDTjyE7SM6F2CLWXrkMoz7j84urL9+oFIHF5+v7q36F2eWmk0fKhH0MDPZlMXNwon5YLkyQQM96OKU09QiRH37PoAZH9Y9lMi/fNqzJD4NhvCPFwcXEhZ2dncnp6KsfHx863lgd/kWgcuGq1Ktvb27KzsyPVatURMyYWWnObtAvIsoK18xg7QMza7bacnZ3J5eWlI2YA3olI1AzMxAwaM5gxfbsr6G8r7js0UvZyMGK2QOiZZi6Xi8zsRKIbyWJ1ZqPRkDdv3jgHWZ2eiERimmGJebvdlnw+L5VKxfmHbW5uysrKimxvb8ve3p5b7QR/tfF47PLhGS8CPsLEeXNz40IDXF1dSbfblbW1NXcwfAO1j2SmJRHsRJ2GaCQRMy6bJmf6mu9ZTTY5/yzkJo6U+coaKnfaaxohkhSXXlLZue1D+cXVz3fdl35cXdLU13dOr4DDoMQ+UtCSnZ6eulhb4/HY9R8uu24LTKgmk0lkwQzygmZtbW0tMhBzGzH54OvafMX108/66h7yp9Ntr8vMssznH8l5wq8MZrjj42P5+vWrHB8fS7fbjRALfh+rq6sRQoF9MSuVSmQhBWuWfGXxIe13EpeObjNfW/rSCU1EfAQTrieTySQSVgSk7ObmRu7v7719k02YsHjA8R9uKEnQ71gTZ1/djajNDyNmCwQ6Fs/6+O/j42MkWn+j0ZC9vT3p9/uSy+VkMpnIeDx+IlBhcsQ+l5eXl3J6eirNZtP5p8GnBVq5Wq0mBwcHzscNiw+gBh8MBi5t7dsAofDw8OB+DwYDLwHiMopEBwbfFjT6vJ7pYkDAgKWdiH2DjSaAjOcSD5GwxiyUvs6Ln0lDnEJEJs3/umwhM0XaMieVKfQ9hJ5N2yb6G0pq97gy+p4NtRv/D23FdDqVTqcjnz59kouLiye+PWgH/q7ZlWBtbc0tHFhdXY0QED3R0dopDvaM6753iwMTNFxnNwqul68dQxon3f/YDMbl1oM2ZNZgMJCzszP5/fff5X/+53/k+PjYBbnmsqMtIL92dnbk4OBAtre3pVqtOqd11j5q0y7Xx2cODpniQv2G68NgDVWcmU/LLF8/1e8QbY6wIt++fZOTkxO5uLiQXq/nJtdcd/4O9ep/hBiBGVOT2bR11+839B0ZssOI2QLh05bpVVfoOEzMEDj28vLS3ecjZphhwhxQrVZlfX1d1tfXpVwuO6G1uroqtVrNrdqE4L+/v3dEbjQaRUwVIt99RuDrhtm+b2BAHbm8+hoGCawow6oylDGXy7mFCdzJ4V+Sz+fdIIcDmgVGSNglkam4QZt/h0hP0n1x5EG3n0ZSedOQEqTtG6Beouw+YpZEjkJkyPcX345ePeZLJ4lkhd4f10Pf9/Dw4FYSItBzt9t1QT31RIOJGU9ocrmcDIdD11dZ88wTEBwsN9BXONAzCA2/Y/QJtBXvl4h66kkSn0c67FfGxIlXhIa0UfoanP4R5uGPP/6Q//qv/5LRaOT258VzKDtkY71ed8SMV2K+ffs28j1oTSeXJYSQnAgRFP6rvxOfZinULqG+hlWVLAMfHh7k6upKzs7O5MuXL3JyciLtdts5/bPGVn+H6+vrEWIGV5Risfhk+6oQmQrJJP3OmBga5ocRs58MCBX4mtXrddna2pJOpyPlctnF9EFQWCZ2EPZXV1dycXHhFg/AlyCXy0mxWHSzTpg4kZ6IyMbGhlslNhqNnM8M1OIi3wUJCJrebD3UobVg5kGVVzXyQIPYRrwiFQE6EZSTSRnP3IGQUPARCt/50PW4dEKDfFL6SYIwLflLW4a4d5aWTKUpT9r2CBEyX34hDW0SAYs7p/PA/z5zNUyZMO0juOxkMolEW2etM3bQGA6HcnJy4sIVgIDhu+adNbCLR+hgrRkGX94yjQd1+IGura1FTJ/Ih8kWBnP0Re6j6LtoBx0qBjJJm8Vgvry/v5ezszP59u2bfP78Wb59++b8oyDbmNiIiIu5BRPm7u6uC5GB1YS8B7BP0473wdDkCb+5j/jIhdZI4rf2AdartZnsI76dzjuE29tbt2UVNnf//PmznJ2dRQLKikjEzy6Xy7nvC+PKzs6ObG1tRXZJ0MTqOXiJNAx/wYjZAsEDAbRAPj8UdCL4ASD4X61Wk+FwKNfX1+5ZnkHPZjM3C0VwWizJLxQKLu18Pu82/X3z5o20Wi2ZzWYuEjkCyLbbbbm4uJCLiwtHgCBMWKhrzZrPlMiDGZMnvco0JED1oKn3+AyFZIibwfveT9z/L3FvWpKXBmmJYFIZ4si0L70kIqORRiM3T14hwpbmuTT18JFA/p4xOYHjP1Y3397euv7t+zZns5l0Oh15fHyUXq/nVmWCHIGY8TkmYT5Sps8zseM6YKIGkxXOM2FDveEkzoSN00JfZUKIdgNB0Zr08XjsXCU+ffokv//+u/zxxx/y+fNn6XQ6Mp1Og30ZK9abzaYLj3FwcCDNZlNKpZKsra05mcLyQcuXkLzQloGk70c/57tfaxlxjr8nPZnU/ZHPYwKAjd0/f/4snz59cv6N2LIK5ByTVrxjXsW6u7srrVZLKpWK5PN5135GqJYPRswWCE1SIESYXAHYvwyb8sJJczAYuJn6/f19ZEaLQeL6+lq63a4jeNigFkK5Vqu5lTfQjsFvA1tywCzw8PDg/M1Ayti0GBIiqC/+slaDNQgsNEMO/br9WPgCPKtlAegji/zMSyALmXqpdH3X0hIxPj8PaU2Ttkg0xlsaDWaaPEOkMvTcPHn4oBer4BtD3TAAMiFD+fR3j9WIvV4vQmyYiLG2DKSLCRgTMh8x4+3S0C+w+Aex01APOIOjz6NMiLfGflta6wO3Ag75gQmjb/HE7e2tdLtdOT09lT///FP+93//V/71r3/JxcWFI2bc3vxuNDHb39+X/f19t78jVq9DDnIZ+OAJJX9H/I7SmDrjCD2f4xWq+hvC96FDYOi+ifSw7RKI2adPn+TTp08yGAyc0z/eHX+jvCcmwint7u7K9va2I2YgciFibPh5MGL2AxGy04uI02hVKhXZ2tqSVqvlHDsfHx+duQTp8Czw7u5Orq+v5c2bN86MCe0YBHS5XHYDAGKcwb9MRJxAhi/XcDiU8Xjsgmfi0FoB38HwreTSM1seyFBeLcx8fhdMzEKzT93WcSaErMLJl0cojZdI+znX+Hyassyr2fMRs7RIIp+MLOnH9bu4smjNi06PTX1x5WSNM7sjxGnF+LrPZMnn4IvF5n4RcYQNITqYXGEPXKxoRNpMzDTB0eSNNXvsH8fEA0FQT09P5dOnT3J8fCwXFxcuSj33ZyzyAUFFrLKDgwNptVqRlYS8GCFOniQ5tcfJLn5GE1T81tp+tKMuD2QYy09dFqQDV47xeCztdlu+fv0qnz59km/fvjm/Mg5qzDIW8hN+xs1mU3Z2dmRnZ0d2d3el2Ww6a4qRseWFEbOfCG06wT5wd3d3MhgMZDQaOXMJFgSISIQU4f+bmxuZzWbOnwz77eFAMEHsp4nZdKPRcEQN/hytVsstxb64uHB+Z9DaQXCEDk2+ILzZ4V8LUZxj8xE7HMMvTmvqMGAweeO0GFqbFtKuJQksX9lDeeC3T8MYhzitUFwaIVKaVQjPq5XyDYLPgdYihLQW+l4+52v7JA1JiOj7vte48nIa2nTGpI21Tfo3/+WFAHzo1ZpMwnBwn4E2HQuBkAdMq+yzBjLG2jyt8eOJHWuCer2ec484OzuT8/Nzubq6ciFG0LZ4Bj5RpVJJ9vb25OjoSN69eyc7OztO08N+qjDjoV6ssdOyxrdIIkkWaELmI2h4p/x++Fm8Y9QX5WZizWExsMBkMBjIt2/f5LfffpPffvtNvnz5Ip1Ox+11zIs5UC/kjbFkZ2dH9vf3ZW9vzxGzjY0NV64kbaHh58CI2QIRGmcgjkcAACAASURBVCRF/AKetVxwxJ9MJtLv9+Xs7Czi7+UjZiBnIEG8hPrm5kaazabkcjkpFArOHw2rnprNptuz8+DgQL58+SKfPn2SlZUVt+0MhCm0ZyBpHPOMNVs8mOhZLAs4HvxYyGIAgNBiPzduN2j+9OzbN6vWA67vt9as+d5dyATLdUlLBNLguRqil0IawpV0T5ryhbQXPkLMZDCOECe9V51eSNPC7z6OmMWlj2+VyQPn4fuN/LgdtFbPpwnx9T1o2EDY0D5sVmUNGTRv7MPGvm3QtOfzeRH5vpL76upK+v2+9Ho9GQwG7oAJEuVC/m/fvnVWg729PTk8PJT3799Lq9WSarUq+Xze1Q+yhsks+3Hplan62/H1Ty0H0H6hg0koyzrOB3WFjAQhAqHVBA6x3rCH6G+//ebMv5eXl25PYy47DrQBFnuBmIGcVatV95xezW5YHhgxWzB0bBt0HJzDPehUcNis1+sujlmv15NOp+O2f4Ea25cPZlqcFzo7noFAg5CFaaNarTrtGRM2Jmbs9AwyiO2hrq6uZDgcRjRqEJIs5NbW1txOAryFlE9bBjIKMsjChE0fvGIOzzMxQ3trMuYzZYRmkXqg9gl5X/q+vENpJ51Lez10La4M85z3XUtzb9r0QhqzpPvjiHhS/nyPHqh9B9/LA6+vrtrsDvCkIg4+jY2PLPjqySER7u7unN8pkxhtKoWZEhoxll2sNePVpWiDh4cHmUwmLjA1Jprarwl5rq2tSbPZlMPDQzk6OpIPHz7I4eGh05atrq5GVosnabGYOKH+caQ37tsJtbevn/P7nM2+myY1eUO9c7mc3N7euv1DEUAWIUVgwhyNRhGrgS47CFk+n5ft7W23ipV3SIBfGSbtcT6+hp8HI2YLBHdOkafL/bUgR6fFbAcbJfd6Pel2u3JzcyOdTseRIx+wIwCvAoUZEk6hKA+v4kKnBjErFAqyvb0tHz9+lPF47IQqk7Hr62sZjUYuvs7Z2ZmsrKxEtGuoP+qLWTFitjWbTa/DMQtCqPj1ykz2uQH5DDkT45kkYhYnnPk5raHz3RMiZaG0feXUafvySrqHoX3A4ghhUh6+/OJ8zLKkF1ffOJKVtq19z2vTlI9kJQ3OIDhsVgdCRC4NSeSyai0z/uo6hNpGyx4QB5AIn2+ZXqiD/ufzl+N6QaPOTvqaQGFiuLGxIa1WSz58+CD//Oc/5fDw0AWUhc/b7e2tt0xMSFFHkGDUMfT+fG2c9E5C6XB8N9b0o32ZzPLkEe4qFxcX8uXLFxcW4+vXr3JyciL9ft+ZQrWFAHnlcn9ZQ2q1muzt7cn+/r4cHBxEiK3Id80cj0tGzpYLRswWCBZQrAXSAwBrsEA0EHPs8fGvDcU5kOVgMAgKjvv7exdfCRokEDUIQOTD5glcKxQKsrLy1xZOGJRAyPgvTKz9fl+63a4UCgU385vNZpFl8Lw6CVrBRqMh79+/l8PDQ7dCjB2UuQ3ZV47rzQMD+2bw6k+kof+mIWah3xxrjcsZl0coX35G3+O75svDd01f19+bL6SD77ks5AbEJEv6ofr4nuGBLq5tsrxLDday+GLlaY2LNmeF6qq1uNoJPCs58/1GmfivJiv8HJtTeUs2rpuP9PgQypfNrCEyhH0cy+Wy7OzsyIcPH+Q///M/ZXt7W7a3t6XRaDiN+XQ6dQsMoG0CQeNvA/nwKlp2r2DNPJcbZY/rhwwmiWhT7gfsdgIyC9MvAG1/v9+X8/Nz+fPPP+Vf//qX/P7779LpdNz+xuyTptsZdSsUCtJsNp8QMyz+wr1MVLU53vDzYcRswUBnRWfCLM5HOFgQIK5ZtVqVVqslg8HAbfsCrRAEFTolL5dGZ7+6upLZbOa0YwiH0ev1pN/vS6lUcsQIfmcbGxsRwSfy3Z9kY2NDisWi3N7eSqFQcCZJVsUjhAe3AQtCkEDsf4djc3MzIlB5kGfwIABBq33dWOBkJU38v+95PWBzPfl3mjzingul6ytfGvLE30aw7LOZzBLSjyubJmVpyp7mL8oeR/rSkrG0xMzXP/W9SAf3sN9lqH/zeR0sWT/j++1L00cYRSRCDhhc5lD9kK4md7woh5/HPTxhwntjGYAD/mz1el22t7el1WrJu3fvZHd3VxqNhpTLZafF1xNaPfHSRIg1eUwSWQ5p86T+JnyaSd93g/z5HeF5XnQh8j0EEbuCjMdj+fLli3z9+tX59mL16vX1dcR8i/y4XPAXrNfrsre3Jx8+fJD379/L3t6eW/SFmGVsTkV5DMsHI2YLBHdU7RTqGyC1Eyn2ONve3nYEDNH+Hx8f5erqyvkL8MormPx4j0uRv7RpV1dXbrXl5eWl1Ot1qVarLqZZuVyOzEIhgLU/1+Pjo9utoFwuy2g0ksFg4JZy93q9J+2BdOGTAnKGGDvlctndh9hPvCRcr1DDvWg79mvz+fLx7yQiFieE0/yflTSFyhi6npWgAb5JQJpypyVmoQE+a5skEbO4NotLK1R2DU1aQuZZpOMjZky69KIZ1IXvhxaWVz7jtz70lmSa9IBI8EpA/Z7Y9yqubpqsYCUm15fT0LKCtcvor7zzQbPZlHfv3jlCAZ+ozc1Nlw/nry0P3PaoL/znWMPEmvQ0pkzfd69JMOev5T0OllV4b9Pp1FlCOp2OM19++fJFjo+P5ezsTPr9vms3aLs0WUeYpVKpJK1WSw4PD+Xf/u3f5MOHD7K7u+smvLC+MCnmNjUsF4yYLRi6Q8MZ3zdTxcyL/TVERLa2tlx6iKR9c3PjYt3gGe68LMBhghwOh3J+fu5IWafTkZ2dHWm1WnJzc+McS3WMIjbDsG8HfEdg1ux2u3J5eSndblfW19ddWdDxeWk/VnqBmO3v70u9Xnf1hGkSJJTNvFr9rgdgni3rd6Hfi+/5uAE8ZJJOysN3TZ+LS8f3XBZSmYUcxqWbVC5NmOcta4iYhXzY0rZ1WmLG9fX109B9MAtqEoVFO9hCR69oZuLG/8PPlK/hPOfhMxeiXByYWWuZ2NyHvsr36DYCMYOTP2uSkA76eD6fj2gOOS34lW5ubkqz2ZSjoyP593//d9nb23PR6UHu+Nvy1ZHbHcQMGn4dWoPT0W2i36fv29ft4dN0ggDxLgrIE4uwJpOJdLtd+fbtWyRw7NevX6XT6Uin05HhcBiJD8caQc4HwcKZmL1//16azabUajXJ5/NPtIm8Q4O2SBh+PoyYLRg+QcfCXiSqTmbhBhKAeGPwH7u7u3PE7f7+3q3C1BoFbXZgs+fj46PbZxOkql6vuwMLADBrRX4cyBICMJ/PS6FQkEql4jRviDbOpicMBNPp1C0Hv7i4kFqt5ogmiJ+IRGbmvLefHni4HX2zYd8AHCJGSYSJ2zUu/bi0Q+d4kPNdT0PQ4p6JQxaCliZtPdgllTUrYUxT/tDzSWX33RtXTj54RwA2r/FqZr6mNWaatLHzvD6Y+LFcwfWbmxvp9XrS6/VkOBw6+aAJBvoVr67UjvO84AhkD9fYVMnmS2gNIY/gWwWzW6PRkGazKf/4xz/kH//4h7x//15qtVok1iKbHrmcof6PySn7fLF5MfTuQ32ZyRz+8j2YpHJekItoBybScCHp9XpyfHzsiBlivF1eXkb2v2SZjt8i4oIGl0ol50sGn91Wq+U0ZbwYA22gZZdP7hh+LoyYLRi+2Z2eoXLsHSZmEHJw0M/l/lrmjhnPw8OD80HQQh9pg1CxGn02m7lFBFjx2W63pVqtSrlclkqlIvV63cU2wxYsb9++dRHDoR4HYWKfMWzzhBkzzDfIGyE9zs/P3d6gw+FQqtWqc+xlLR2IGW87IpIciiTORKPh0wzEPftSs0ytdYszK/iEqS5nEvmIM+Ho55IIURZhnpZ4xeWRVPYkwpa1zDqfLOSMB9SQDxmb333P8OEzb/quY7HP9fW1DAYDOT4+FhGJxNGCqwPLB/iW8nZHKONkMpHhcChXV1fOzxUuBtqUyrIM94BMcPDY/f19Fxbj/fv3zowJ4qYnWOj7kGXc7nhXep9QvAsmJUnEi3+HtGqh3yJPzcKwaiBkCHZBOD09lePjYzk+PpbT01MXbggTb0yg8e44bfjolstl2draipiBDw8P3bZLaEced4yEvQ4YMVsgfAMJz16YgEGLpYkbNFLY347DWiDmDWKHQfgCHIeI/VxgeszlclIsFuXi4kKq1aoUi0W3AwA2DJ5MJk5zBvKFcmMjXJStVCo5cocgtiJRwQJBj/3fEOF7NBrJzc1NRAhj4BCRCDFD+7GQwaAAvxafkzjuy/L+fIjT3KR5Put5330YWEPlCJUtZOb1PZtGw5RGyKchjiGtHF9nU3paZB2EWPui+y9raUJl5v7N/mn4ltmExHKAiYM+fFoTTeA4tiBMYe12W2azmVuUw6SM2xQLjTAhq9frks/nHfnDikBowEIxBXli5HPXADGD6fKf//yn/Prrr3JwcOACoDLp5PZH3xZ5ugiEJ2ZsutT3+N6ZTyPGmj/9/n0TKZ8/K5NodvX49OmT/Pnnn/Lnn3/KycmJnJycyNnZWcQszf692goi8j28SK1Wk52dHTk6OpJffvlFPnz4IDs7O7K9vS3FYtGVhb8dLTONqC0njJgtEHoWyYJKz8pwLmSGg2AvFArSaDRkOp26lY/1et3FERsMBs43C/mxs7EWTLe3t3J9fe00WcPhUPL5vJslX15eOmK2ubnpZtQ4CoWC5PN5OTs7k3a77baOwkoiJks8WEHLx/HQMHiAnHFQRj3QsWaCZ5d6MAu9l6T3FgceNOPS4Pesz/vySiI/WQhd0r1pNH5pBHaaMqUldUmEN0nTF3omqf04f+6XeuUep8dp6veMiQt/J0wccI8+dBtocqY1bfydb25uuj4FbdVwOIxoTXS5c7lcZE/Fra0tF6JiY2PDETAs5OG9cmFqi2tL+IbCZxUBTw8ODuTDhw/y4cMHOTg4kEaj4SadcZMNADLt4eEh8o70ggDIPSZO+p3p9vAduk6+thSRiJ8gAuuOx2MX8uLy8tJpyU5OTqTb7bpJNfpjiLi/efPGrZqvVCqOzB4eHsqHDx9kf39fms2mFIvFJ+ZLbcKE7NTfsmF5YMRswdDLkZMGCV9cHTyH/S15pQ+i8//xxx/y9u1bOTs7k26364SE9j/RuL+/d0RqPB473w6s3oT2i4/NzU0XKqNSqUixWHQxzbDxOrRkGIxAtFAWOOtiufhwOJThcOhIGQsVJrUiT/0uIHz1PVroxJkg+FzSO/KlrdNhwZ8mr9A5hj4fl0YcfN/CPIQndN5HRtMibpDAtXnLnmUA0poTTkMP1qHvShMznZ6PjPmu+cgZD9qsbUOfGo1GbrNvTGz4uwZZgRZre3s7sqfi5uamC+dQKBSciRSLhKDd9rUrl3l1dVUKhYLTjH/8+FF++eUXOTw8lMPDQ9nf33fa+FAauk3Yh4816awBYvIG3zQmy/p9aXKnv2Nua59l4/Hx0ZksR6ORk4XdbtftFdputx1Jw04u8K3lb8NH/jApR2gRENujoyP33uB2Ak2bVgTwt6fjvRmWC0bMFgit+fIJBS3UuQPpZ7AQAASpWCzKzs6ObG1tydu3b51Z4+7uzsUv0+EFtBCF+nwymUTO8zYsyKtYLLoI3RsbG87sUa1WI7sBwHmVNWY8QDExm06nztQyGo3cDJtnc6zSF/kem0kTM54dor6+dxL6rQlZiFSxwPOln2bw9pG/NBqjeX8DejAPpZ+Ur69tQpqGtPkkgd83I/Se5slXa81C79+n+fQ9p4lZGo0Q58NpaC0KHzCTwu90MBhE9rbUkwn0TWjMtra25ODgwPl9bW5uuh081tfX3WKd4XAoNzc3Ee1LqOyz2V/xE4vFotvp4+PHj/If//Efsru7Kzs7O7KzsxMks6E2hyyAjNE7hrB8gVbN5wah3x0TMy2D+b2xCZl9/Tg+JCwYcOrHMRqNZDgcyvX1dSQ/HatNB7B+8+aNm4QfHh7Kx48f3YKJZrPptGU+As/vG98Ca9FCK8wNPw9GzBYIFtShazxIanU8X7+5uRGR7/vK4TeWSh8dHclsNpNSqSSNRkOq1ar0ej1HlKA98wWbRD66vPAnYb+R8Xjslm9jZlgqldyqo+l0KhcXF3J1deVCXWghgfr0+303Y19fX5fRaCTlcllKpVIkMjYEF6904vRCGomk9xJ6T0nkJqQt8wl73/+h7yI0aCeVN/Q7ruwhrVPct5qmfeKEfFK7Jg0OoUH7pUgZ38thYXBOkyEf0ZlHA5HULiLJCzKQ/8PDg5yenjrXgn6/73YBYf8yThckZjKZuG2BVldXpdvtSq/Xk7OzM/n8+bO02225urqKbIvERAe/37x547R19XpddnZ2ZHd3V1qtlpTLZVlfX3cxFTX0ZEv7FM5m0VBAvOE6EzOshIRZdzKZOGLG7Ya208Q5l4v6qWGlKxYy8cpX7ISCOI7wJ8PR7/dlMBg4jSP7z3G9NPHmiTjMlyDOiOhfq9WkUCg82QqLZSLXEenquhuWC0bMFozQAKRnf1D7a0EEwYLVUNBiiXzfyqRer8tsNpNisSj1el1qtZpUKhU5OTmRdrst5+fnjpzxgMyDDaAdeFlLhQ3CMQj0+33ne4Z0MHMcDAYymUyCwoc3M0aMnm6369LD6kwuk28W6xNwcSRDn89KyuLuSZOuj6DF5ZeWRKatRxK5SVuHUNlCgj4rufT9HzoXdz7LPVwmkAJfeBatsdKkzEdOQ4QAf+O+jyx1AzFDvMJ+vy+j0Uim0+kTJ3I8A+IBcgHNGwje+fm5tNttF4keRAzuCagXDoTVyefzjpgdHR1F4pOBmEFzpOviI0s+DSI7ynNb8+SN36OezOk8OR8OW8KLKxBXDmF/IO8Gg4FcXV3JYDCQ4XDotGP8nNaE6TJzGVdWVtxiCeyKcHR05MyXrVZL6vW622eY28bXlviftY9GypYTRsx+AOIED5vkIEDQyXK5nOvIEKwi4u6Beh6rqra3t2Vra8tpneCPhv0jReSJcAa01omdjEEOMdvDeY5pxsIPM8jb29tIkFrWmPGm6LPZXyvHzs/PXVgObZ4IOWLzzF1rH+NmgyGhnETMQoNG6Nm0A+68ZC9r+iFzaVoimZWI+vIIpR9Xd/w/j+klK2njlav6u9PmVCZmbAbT9WJCp+vt+6ZC31noWwXu7+/dSr92u+205ohBpp+DBgpbqkHmTCYT+fz5s3z+/Nmt/EYsNITI0RNI9md6+/atFItFqVarsrW1JXt7e9JsNt1evCA1CAiLcsEfVWvJmHBwW2tCFWpfTovfm24Tzgsasul06gIEj8dj57aB6P0I2A1ChrAiOHzfmU826fKvrq66/UPfvXsn79+/l/fv37uN3be3t6VcLnsJq24nXx31b8PywIjZghEaCLUwgkCH1gnXQNjW19edUNSqaPiKrKysSLValb29vchWHfV6XS4vL52anYULTJDcqbVvA8qrQ1DABAL1OIQAzvFgxsSMyw6S1u/35fb29olpAvf5hAsPgjjH7cp/NeJIhe+erPemJTBpyxh6Pumvfi70PaatQxJxSqpT3H1p2hTvPAlZtAG6DJyPHvxDCz98hCyOECQRah9p87WJLjc0z51Ox5kiEZBaD8iY8PX7fVlZWZHxeOwc8W9vb+X8/NwRO16RCcd6pMNEAL+hget2u/L582eZTqeRhUSY3PFm2iLi1YD58tHtots5RHp1G2gwgWaTJWvMeGcGaMWGw6GMx2OZTCYynU4jm8LHlRPABJdjRpZKJfn48aN8/PhRjo6OZGtrS7a2tqRWq8nGxoYzXfu+BZ0Xy9+4+huWA0bMFoi4DsGCg0kNBCYPBCBeUMtrIc1aKcw4EVOsXq9Lq9WKOKDC76Hf77uwGhxrjAUJEzPWEuBeLPVm4cerKXG/ns3xNZg1r6+vn5gtAd8g5yNroWd8yEqmfHlkST8p7azphsofl/48QjkLcZznvizp+AY5jXnrlkSWdNo+k5FO05eXrx4sJ5Lu1fnzxEhEXIBZTMCgufatKAQxu729lX6/L/l83u3YAfMctn3TplxuE113bKnW6XRkOp1Kp9N5smuIT8OVtm2yTAJ8bhCh31w/Dtyrd2WAJUNvocX7pGpixqsl+f3lcn9t34TVq5VKxWkasSsCFmSAOOfzeZdeHPQYpL8dw3LCiNmCEeoAWmPG5/UzIGYhwLSJjc+xhRO2Pdnd3ZWTkxP59u2blEolOT09dcIRhNC3iodnmb7VcPpcaDCJM59hIQAWN4SwCMEyL3HSg8pL54885nk2TdnTpL+sgjsNiZu37EnEKksZfM/EkQ+RsB+a7osAa+94csYbouugvHqFNkgFgsiyDyv7RTFC7gJcRiYuCGYdqn8c+cw6KfBNVvTEN+4IhcUI7d7AdYiTC0wOfasloSFrNBpu/+L9/X359ddfXRBerh/aSy8kiPuufFjWfv5/HUbMXilYeDB5EvkuOLEUHkIhn89LtVqVVqvlYuuw0ypm13oTZQ5HoYVPaJbP5fTNUPWzWREnyJ+jqk8zE087gM+LNOUOmerS1jnp2VDdfrYgD9Wbr79EHiH4tA9p0+RvNrRAAIf+DkMDLhMKJkYhshGnfYMGHPXjwKe+umgLgJ7IhchYqP+k7U9ZyZpvAQe3n64bX/OFJkFeuh6htuV3zSQRpsuNjQ1ptVrSarXcClb+WygUnuSTVGeuz7L2ZUMYRsxeMTCTExFHnFj4IdhgPp+Xzc1NqVarsrOzI71ez/mg8F+sJNKHb6bIA0gcSQiROBZwaeETSL5zoTxDac17PSsxSysIn3uf1lSGrsedn7fdnoOXbp95818U8fMRLn3dRxZ8xMxHMny+nKzdwnkdNkIfvBI7VF8fofERFV/5kyZwGlmJWNK9vnziCGuofCFiGfeXXTWwbyiHwtjf33cBY1utlosZOS+JDdXXsNwwYvZKEZoR84oyBInN5XJSqVQiZgvE3Lm8vJR2u+1WcHEE/7W1NRH5PnPWGyv7ZpK6fIznDHg+DYL+jf+5TeYhEmlJW9a002hbuMzzCtQkjQ//DT33f3mWvcg64v3qIKe4FtdvfOQmRMz0eX7el6/IU9eEtPXx/faVnf/qOrB5Lw1eclLEhCmk0YuTZbrf6MUJnB5iQK6vrzt3k2az6VZdHh0dud0XGo1GJJi2zneRkyTDz4URs1eKXC73JAwFzot8nymzkODo1/BrePv2rRQKBalWq2510XA4lF6v5w4QOl6dhJVHuMYRsH2atbTmOf3bp8XQ94U0CYvUrKQhWUlpxCGtRi5rGeLSTFOn59Y7hJcelP+uBNL37WnToc/v05cGX0+aSCVpoLOUP3QujcZW35cWeiW7To/7GxNVXzmTyof8sBALcjafz0u5XHZb2WF/UvzF73K5LKurqxGzctyEat6JomF5kRuPx39PCfZ/DL7ZLsib9mfBaqO7u7vI/m5Y7j0ej53WrN/vR+L2YMUXVn3xEnH4pyF9Tc5C0EI/zgSaBK0xeI3IaiZ9SXKWNr0073MRmHfwSVumJE3iSyBOcxX6dn2ap6zvQJvUUAZff/ORFZYvzzE7L1IbG2cGjtPe6TTmkT8cxw5asbW1NUfEyuWy8yXDgdiTCCOysbERCRni+1aSfqcluHFtYPi5MI3ZKwU6KzRgeubr0zihs8NEKfLXJujQgCGY4u3trVxdXbmtRBAMdjKZyNXVlTsQw2c0GkUCxvLScjazAnFELHT4ngth0aRs0cQjyww4a1meM6CmvednE7PnlOtHEDPk49PSxE0qfJqe0HNpzPGscff1Mx0jMK2JPU6zFEfU2PctCXFtlMW0yOmlkTU6HU6PV8Ai7Ah2ZoHZ8vDwUA4ODiJBYpvNZmQLMMhgxJ+LMwOH/o9rI32PkbPlgxGzVwp0Ot4SRSQ8a/IRJFxDOA6E3cjn8267p2q16jRht7e3TlsGjRnHS+KgtRAs7JOmA1SGfNX4viSSpn8ntde8iDPBvES+uj5ptX5Zy5Um3XmJTdZ3M2/bpL13nrxE/NqolyShcZqNEMEKETj0E18IB50e/8YEjfe7DNUpbuCOa6cQuQmln0XTk6YsofTjXB98E1qe1LI2C3680I5hkdXGxoYUi0UpFotSKpWc+bJcLku9XndHsViUtbW1J+8SpDmp7Lp+oeuG1wcjZq8YPtMlz4Di/Ef4fgga3m+tUChEfMfg/M8EDBoyNnWySZN905iIYQsY3lhZxw/y/U4iaPx/GiE/L2lI0twlDURxafMiiyQSlbVemvjG4TnkzFfu57QJt3dWB/Us5DZJ6/CcOjB85kgfeeL7fBpx7pd86DLpPiQiEVKhV1kDfD+ISFLbhP6Gzun6JeEliL7vOd83C0IGbRa2weNjY2PDBX6tVCouOCyOWq3myNrm5qbTpOFA+zMBzOWi/sAh2R33f5r2MRK3vDBi9sqhZ9dxpMzXwdkvwrfHn84HRAtaMT40KdMEDeSMFxHc3t4GZ/76HM/stcCKI55J7ZblfBotQJrfoWeZvOqdFl6iDiHN6XPS5euh7y3UXlnah4N9pkUWYibyVDOVtrxp2yzUtzQxC5nedNBTRKHHRGk6ncZOYKCN2dzclFKpJPl8PnIfB2JFHniGzWq++vvIZegejTTkbJ72jstXl1cTYg7czT5jfCBaf6lUklqt5syW+I1NxvEsv1MmuywDUQYQMx2Qdh6E6m/kbDlhzv9/Q2Sduft+h9LgQUEfvF2JbxsT3zNaE5ZGW6brmMa/YhEELS2Ji/utn9PtEMK8g1SWxRhZr+F6FmKW5b6sxCxtP0hTpyy/s6QZ+q55wiTy/Rv39bfpdCpnZ2dyenoq7XY7si0QAC3MysqKFAoF2d3dlb29PalWqxEiAs0Q8sL3oqPnh+rCdcrSXmnwEt98nKzQMoU3VGdytb6+7jZyZ40ZzJdw5MdvTodJdmjTe/1NcJl8CJ1P015ZVYB4xQAAC2lJREFUtJWGHwfTmL1i+DbwjhN4vk7I2ojQTNs3c4cqn9NhUuEjbzzb16vCOI2Qb5mvbj4fjNDA4Kt31vOhdOcZvOPO/2jtQdJzWa4llW0ecsPfVdbVgVlJwLxlzjIZ0IcOccGBSPlb0JMebBb+3//933J7eyu9Xs+Zwe/v793zIBf5fF7q9bq8e/dOfv31V9nZ2YmY61izw8QM5UrbJkn9xXdtERMRLU989dDPQi6x+RLEjLVmeuNxrVEDeQstOtDyWMtPTYhDZZ8HIZJqWA4YMXul0KYObfZKmm35fEl85kKdl57l8R5wPjOHTwMmIk7o6ZVY8xCykPPwjyZnvuezDii+GXQI8w5WSXgu2clarrTt5fOVmreMWe7PQh7T5K37mv7GtW8Tn9euBHd3d2519NnZmbx9+9aZNkHQoKlZX1+XQqEg9XpdDg4O5JdffpF3795FfKhANN68eeO0cmm/rbj+kZakxrVZmrRC6XPA6bTEDKZMtIvPnMn+ZpqAxaUf1wa+Yx4SxZPeOCuIYflgxOyVI+RI7BP2IcHBpgzM0vQ1/T8cVnkVmI8gsZBjZ1b2lwF0+flcVmQR9GnOi4QXVySlk2VQiXtPcQj5RvnSSFvuee8JlcX3fFrSE0rvRxG0rGWLm0zEETPcg9V/2q+LNWXw35zN/lqsA5MawixoDQx8oiqVitTrddna2pLt7e2IhgiEAxoz3pYpy3eTlqTielJ/nSdd332678aRSdZaMgFj0yRkJXzxfPnEyQtfvngXcUQyLULkzLRlyw0jZq8Y2i+B4RN2rInR6nGdDt/DwoMHEp9mLZQPz/x5sMgyy9Yk1Cd00poyNdLel9akkIVw8PkkQc7Ph0hXErlMM6sPIQ0p82lO49JJS7gWXfY092fV1jBQdq3F0eZCrTHj+rLGDCRKRJxf0+bmpkwmk4hTOcjV6uqq2zOXiRnuY/OdiESImc8Pap72i7svy/vJcq/+bkIaK/7tk2kcLgPvCPdqv0eflUGXIUTKfPekqaNGiJCZ5mz5YcTsFYO1TaHtj7SWBwgN7ppc6SXbPLDwoTs8Cxie/XEeTO64TPo35xuCLsOihDzKwn/T3O+bteu806abpLmIu65Jedrn0t7DA9C8pCx0XjvEp3lmnnvS3J81Lz0wp9GYsSnTdx7H4+OjbG5uOofzyWQio9HIkbZc7q89GhHSoVarSbVaddHouR+yawIvtPC1e5rvIS0WSRa0FjqJmPkmjKF09GKUEEFnmeeToUif8+GyzdM+cdoyI2fLDSNmrxSaiGk1uk8A+YSoL2xCLpcLrnxDh/YJ6bhyhtKaR7DHaaCeM1CkEVYhopuUTkgYZk0n6Zk0QjeJ4CYhjdYsLaGJa5fQe54n1EfWe17i2aR6gexwiARfGvzNsTbt8fExsjqwWCxKpVJxoTPu7++dhmdzc9PtydhoNKRYLMrq6uqT/qw1Yr5JhCbWL0HOsk5Gsr5D7XIRyo8nozov38Qpl/u+2jU0KdRtqsmZvjdO65y1vePImWF5YcTslWI2mzl/k9ls9sQnxbdHJg9seiYW0ohx8MO4g9NJOnhwSSMg4kifD1pwviTitI9JyFLXNNrBl8jnJe/RA1BahJ4LEZXnEM8s97wEdPvofuYjArjOzzMpYLPabDaT9fV1R8zK5bLb7xbmztXVVSkWi9JoNNxG2YVCIbKqOkQEWGMe6m/PJWdpNMVpJpmhsrF2UhMfTYK0tkqnpfOOC3WhCZWP7Ok66fIlaeDSwLRlrw9GzF4xQkIgpLpn4RQSEkwMeIsXvSAglL4vbRbqcRoTnU6ozmnaJYkkZJ2hx+X1kli04HzJer2k5vK5mqis9yyqjeMIRJzmxYe4b5eDk66trTnitbu765z4S6WS80MrFotyeHgo+/v70mq1pFwuO42Zj1jElT9LWX3pZEGcZitLGmlW8mpteNo8mFzria1v8uurR5yGzAfTnP29YcTslQIqdDZBsIANxR/yCd0QGeBVR1qAsMCJI3p4Xm/nojVt+hqnpWe0PiLnwzxapSyCatEEKg3RWZRgTUMQQ2V8brsk1TsNoUki9i/dbvMQ3rhBOa4NeaKEd1Cr1eTg4EBWVlak1WpJr9eT6+tr54e2sbEhe3t7sre3J9vb21KpVNx2QDqtUL+ep83SPDOPdigLMdETS52OTjNL2rPZLLIVFss1fpc+TW/c+08bEiYLjJC9Hhgxe6XI5XJuWbvIUwdWn+lBExzf37QdV6cdGnCStHfzkqo0s/pFEbM0M+CXQBZS8tx809QlS311wNTnlCtOC5Xmfpx/bllCyErKQnXyfVes0WKTp44nWKvVJJfLSalUkvF4LNfX1zKdTt096+vrzsesXC5HFg6kaa+X1niF8lsUmJjFmRXjyFmIQHOMNF484bMcaPgmqBxIWcvN536/aSZchp8PI2avFOisvCw+FL3f9yz/BXxCSRO2OPNVXDm1L0acA7ePQPrKmfZ8lrTTXENei0IaTWLS8yE8p9xphbrvG/lRM/S4tktT9ueU8zntnqQ185Ufz2DvSzj5Yw/au7s7d8/a2pqUy2WpVCqysbHh3fD8OfV7zrMh2RKnScvSR3xtGyLCLP98mnmdL0+CQ5uOZ+lzWn6H5JVpvP7eMGL2igE1OqvO4zQDaTQg+j6fsEwaaJnUsWo+LTGblzzECXK+HpdPUhpJz70U4rSCoTKlKTvf/xLlCt3zUojT5syT1jwa2rRI0y4+7Qx+h/pumjZfXV11EfvX19fl/v4+0sdWVlYkn89HQtdoE6bO8yXxkqQ4CwGe53sNTVh1+lqbGep/SVpu3/2hOJOh9EwL9veCbWL+ipHUQRctbH15hPIxYWIwLA6+uGia2MNnVJvafBMpQ3qknUBlkcc/QnYblhdGzAwGg8FgMBiWBP6lKgaDwWAwGAyGHw4jZgaDwWAwGAxLAiNmBoPBYDAYDEsCI2YGg8FgMBgMSwIjZgaDwWAwGAxLAiNmBoPBYDAYDEsCI2YGg8FgMBgMSwIjZgaDwWAwGAxLAiNmBoPBYDAYDEsCI2YGg8FgMBgMSwIjZgaDwWAwGAxLAiNmBoPBYDAYDEsCI2YGg8FgMBgMSwIjZgaDwWAwGAxLAiNmBoPBYDAYDEsCI2YGg8FgMBgMSwIjZgaDwWAwGAxLAiNmBoPBYDAYDEsCI2YGg8FgMBgMSwIjZgaDwWAwGAxLAiNmBoPBYDAYDEsCI2YGg8FgMBgMSwIjZgaDwWAwGAxLAiNmBoPBYDAYDEsCI2YGg8FgMBgMSwIjZgaDwWAwGAxLAiNmBoPBYDAYDEsCI2YGg8FgMBgMSwIjZgaDwWAwGAxLAiNmBoPBYDAYDEsCI2YGg8FgMBgMSwIjZgaDwWAwGAxLAiNmBoPBYDAYDEsCI2YGg8FgMBgMSwIjZgaDwWAwGAxLAiNmBoPBYDAYDEsCI2YGg8FgMBgMSwIjZgaDwWAwGAxLAiNmBoPBYDAYDEsCI2YGg8FgMBgMSwIjZgaDwWAwGAxLAiNmBoPBYDAYDEsCI2YGg8FgMBgMSwIjZgaDwWAwGAxLAiNmBoPBYDAYDEsCI2YGg8FgMBgMSwIjZgaDwWAwGAxLAiNmBoPBYDAYDEsCI2YGg8FgMBgMSwIjZgaDwWAwGAxLAiNmBoPBYDAYDEsCI2YGg8FgMBgMSwIjZgaDwWAwGAxLAiNmBoPBYDAYDEsCI2YGg8FgMBgMSwIjZgaDwWAwGAxLAiNmBoPBYDAYDEsCI2YGg8FgMBgMSwIjZgaDwWAwGAxLAiNmBoPBYDAYDEsCI2YGg8FgMBgMSwIjZgaDwWAwGAxLAiNmBoPBYDAYDEsCI2YGg8FgMBgMSwIjZgaDwWAwGAxLAiNmBoPBYDAYDEsCI2YGg8FgMBgMS4L/B+Jh8a0M/oszAAAAAElFTkSuQmCC;rotation=-90;" vertex="1" parent="1">
          <mxGeometry x="107" y="440" width="614" height="330" as="geometry" />
        </mxCell>
        <mxCell id="um907eCkDZn0zg9bFrnv-21" value="" style="rounded=0;whiteSpace=wrap;html=1;fillColor=#0050ef;strokeColor=#001DBC;fontColor=#ffffff;" vertex="1" parent="1">
          <mxGeometry x="550" y="420" width="10" height="10" as="geometry" />
        </mxCell>
        <mxCell id="um907eCkDZn0zg9bFrnv-22" value="" style="rounded=0;whiteSpace=wrap;html=1;fillColor=#e51400;fontColor=#ffffff;strokeColor=#B20000;" vertex="1" parent="1">
          <mxGeometry x="550" y="450" width="10" height="10" as="geometry" />
        </mxCell>
        <mxCell id="um907eCkDZn0zg9bFrnv-32" value="" style="group" vertex="1" connectable="0" parent="1">
          <mxGeometry x="303.5" y="247" width="47" height="165" as="geometry" />
        </mxCell>
        <mxCell id="um907eCkDZn0zg9bFrnv-14" value="" style="rounded=0;whiteSpace=wrap;html=1;fillColor=#e51400;fontColor=#ffffff;strokeColor=#B20000;" vertex="1" parent="um907eCkDZn0zg9bFrnv-32">
          <mxGeometry x="18.5" y="155" width="10" height="10" as="geometry" />
        </mxCell>
        <mxCell id="um907eCkDZn0zg9bFrnv-28" value="" style="html=1;shadow=0;dashed=0;align=center;verticalAlign=middle;shape=mxgraph.arrows2.arrow;dy=0;dx=10;notch=0;rotation=90;fillOpacity=40;fillColor=#ffe6cc;strokeColor=#d79b00;" vertex="1" parent="um907eCkDZn0zg9bFrnv-32">
          <mxGeometry x="-54" y="54" width="155" height="47" as="geometry" />
        </mxCell>
        <mxCell id="um907eCkDZn0zg9bFrnv-33" value="" style="group" vertex="1" connectable="0" parent="1">
          <mxGeometry x="457" y="247" width="47" height="165" as="geometry" />
        </mxCell>
        <mxCell id="um907eCkDZn0zg9bFrnv-34" value="" style="rounded=0;whiteSpace=wrap;html=1;fillColor=#e51400;fontColor=#ffffff;strokeColor=#B20000;" vertex="1" parent="um907eCkDZn0zg9bFrnv-33">
          <mxGeometry x="18.5" y="155" width="10" height="10" as="geometry" />
        </mxCell>
        <mxCell id="um907eCkDZn0zg9bFrnv-35" value="" style="html=1;shadow=0;dashed=0;align=center;verticalAlign=middle;shape=mxgraph.arrows2.arrow;dy=0;dx=10;notch=0;rotation=90;fillOpacity=40;fillColor=#ffe6cc;strokeColor=#d79b00;" vertex="1" parent="um907eCkDZn0zg9bFrnv-33">
          <mxGeometry x="-54" y="54" width="155" height="47" as="geometry" />
        </mxCell>
        <mxCell id="um907eCkDZn0zg9bFrnv-36" value="" style="group" vertex="1" connectable="0" parent="1">
          <mxGeometry x="406" y="235" width="47" height="165" as="geometry" />
        </mxCell>
        <mxCell id="um907eCkDZn0zg9bFrnv-37" value="" style="rounded=0;whiteSpace=wrap;html=1;fillColor=#e51400;fontColor=#ffffff;strokeColor=#B20000;" vertex="1" parent="um907eCkDZn0zg9bFrnv-36">
          <mxGeometry x="18.5" y="155" width="10" height="10" as="geometry" />
        </mxCell>
        <mxCell id="um907eCkDZn0zg9bFrnv-38" value="" style="html=1;shadow=0;dashed=0;align=center;verticalAlign=middle;shape=mxgraph.arrows2.arrow;dy=0;dx=10;notch=0;rotation=90;fillColor=#ffe6cc;strokeColor=#d79b00;fillOpacity=40;" vertex="1" parent="um907eCkDZn0zg9bFrnv-36">
          <mxGeometry x="-54" y="54" width="155" height="47" as="geometry" />
        </mxCell>
        <mxCell id="um907eCkDZn0zg9bFrnv-39" value="" style="group" vertex="1" connectable="0" parent="1">
          <mxGeometry x="355" y="235" width="47" height="165" as="geometry" />
        </mxCell>
        <mxCell id="um907eCkDZn0zg9bFrnv-40" value="" style="rounded=0;whiteSpace=wrap;html=1;fillColor=#e51400;fontColor=#ffffff;strokeColor=#B20000;" vertex="1" parent="um907eCkDZn0zg9bFrnv-39">
          <mxGeometry x="18.5" y="155" width="10" height="10" as="geometry" />
        </mxCell>
        <mxCell id="um907eCkDZn0zg9bFrnv-41" value="" style="html=1;shadow=0;dashed=0;align=center;verticalAlign=middle;shape=mxgraph.arrows2.arrow;dy=0;dx=10;notch=0;rotation=90;fillColor=#ffe6cc;strokeColor=#d79b00;fillOpacity=40;" vertex="1" parent="um907eCkDZn0zg9bFrnv-39">
          <mxGeometry x="-54" y="54" width="155" height="47" as="geometry" />
        </mxCell>
        <mxCell id="um907eCkDZn0zg9bFrnv-42" value="" style="group" vertex="1" connectable="0" parent="1">
          <mxGeometry x="175" y="199" width="397" height="382" as="geometry" />
        </mxCell>
        <mxCell id="um907eCkDZn0zg9bFrnv-16" value="" style="rounded=0;whiteSpace=wrap;html=1;fillColor=#0050ef;strokeColor=#001DBC;fontColor=#ffffff;" vertex="1" parent="um907eCkDZn0zg9bFrnv-42">
          <mxGeometry x="186" y="191" width="10" height="10" as="geometry" />
        </mxCell>
        <mxCell id="um907eCkDZn0zg9bFrnv-26" value="" style="verticalLabelPosition=bottom;verticalAlign=top;html=1;shape=mxgraph.basic.pie;startAngle=0.08;endAngle=0.41;rotation=-90;fillColor=#dae8fc;strokeColor=#6c8ebf;dashed=1;fillOpacity=30;" vertex="1" parent="um907eCkDZn0zg9bFrnv-42">
          <mxGeometry width="382" height="382" as="geometry" />
        </mxCell>
        <mxCell id="um907eCkDZn0zg9bFrnv-46" value="" style="verticalLabelPosition=bottom;verticalAlign=top;html=1;shape=mxgraph.basic.rect;fillColor2=none;strokeWidth=1;size=20;indent=5;dashed=1;fillColor=#dae8fc;strokeColor=#6c8ebf;fillOpacity=60;" vertex="1" parent="um907eCkDZn0zg9bFrnv-42">
          <mxGeometry x="365" y="281" width="32" height="19" as="geometry" />
        </mxCell>
        <mxCell id="um907eCkDZn0zg9bFrnv-43" value="" style="group" vertex="1" connectable="0" parent="1">
          <mxGeometry x="252" y="199" width="470" height="382" as="geometry" />
        </mxCell>
        <mxCell id="um907eCkDZn0zg9bFrnv-44" value="" style="rounded=0;whiteSpace=wrap;html=1;fillColor=#0050ef;strokeColor=#001DBC;fontColor=#ffffff;" vertex="1" parent="um907eCkDZn0zg9bFrnv-43">
          <mxGeometry x="186" y="191" width="10" height="10" as="geometry" />
        </mxCell>
        <mxCell id="um907eCkDZn0zg9bFrnv-45" value="" style="verticalLabelPosition=bottom;verticalAlign=top;html=1;shape=mxgraph.basic.pie;startAngle=0.08;endAngle=0.41;rotation=-90;fillColor=#dae8fc;strokeColor=#6c8ebf;dashed=1;fillOpacity=30;" vertex="1" parent="um907eCkDZn0zg9bFrnv-43">
          <mxGeometry width="382" height="382" as="geometry" />
        </mxCell>
        <mxCell id="um907eCkDZn0zg9bFrnv-24" value="毫米波雷达" style="text;html=1;strokeColor=none;fillColor=none;align=center;verticalAlign=middle;whiteSpace=wrap;rounded=0;" vertex="1" parent="um907eCkDZn0zg9bFrnv-43">
          <mxGeometry x="318" y="211" width="110" height="30" as="geometry" />
        </mxCell>
        <mxCell id="um907eCkDZn0zg9bFrnv-25" value="超声波雷达" style="text;html=1;strokeColor=none;fillColor=none;align=center;verticalAlign=middle;whiteSpace=wrap;rounded=0;" vertex="1" parent="um907eCkDZn0zg9bFrnv-43">
          <mxGeometry x="318" y="241" width="110" height="30" as="geometry" />
        </mxCell>
        <mxCell id="um907eCkDZn0zg9bFrnv-48" value="毫米波雷达探测范围" style="text;html=1;strokeColor=none;fillColor=none;align=center;verticalAlign=middle;whiteSpace=wrap;rounded=0;" vertex="1" parent="um907eCkDZn0zg9bFrnv-43">
          <mxGeometry x="318" y="276" width="152" height="30" as="geometry" />
        </mxCell>
        <mxCell id="um907eCkDZn0zg9bFrnv-49" value="超声波雷达探测范围" style="text;html=1;strokeColor=none;fillColor=none;align=center;verticalAlign=middle;whiteSpace=wrap;rounded=0;" vertex="1" parent="um907eCkDZn0zg9bFrnv-43">
          <mxGeometry x="318" y="306" width="152" height="30" as="geometry" />
        </mxCell>
        <mxCell id="um907eCkDZn0zg9bFrnv-47" value="" style="verticalLabelPosition=bottom;verticalAlign=top;html=1;shape=mxgraph.basic.rect;fillColor2=none;strokeWidth=1;size=20;indent=5;dashed=1;fillColor=#ffe6cc;strokeColor=#d79b00;fillOpacity=40;" vertex="1" parent="1">
          <mxGeometry x="540" y="510" width="32" height="19" as="geometry" />
        </mxCell>
      </root>
    </mxGraphModel>
  </diagram>
</mxfile>
